  0
SECTION
  2
HEADER
  9
$ANGBASE
  50
0.0
  9
$ANGDIR
  70
1
  9
$MEASUREMENT
  70
1
  0
ENDSEC
  0
SECTION
  2
TABLES
  0
TABLE
  2
LTYPE
  70
4
  0
LTYPE
  5
40F
  2
CONTINUOUS
  70
0
  3
Solid line
  72
65
  73
0
  40
0.0
  0
LTYPE
  5
410
  2
DASHDOT
 70
0
  3
Dash Dot ____ _ ____ _
 72
65
 73
4
 40
2.0
 49
1.25
 49
-0.25
 49
0.25
 49
-0.25
  0
LTYPE
  5
411
  2
DASHED
 70
0
  3
Dashed __ __ __ __ __
 72
65
 73
2
 40
0.75
 49
0.5
 49
-0.25
  0
LTYPE
  5
43B
  2
DOTTED
 70
0
  3
Dotted .  .  .  .
 72
65
 73
2
 40
0.2
 49
0.0
 49
-0.2
  0
ENDTAB
  0
TABLE
  2
STYLE
  70
4
  0
STYLE
  2
KICAD
  70
0
  40
0
  41
1
  42
1
  50
0
  71
0
  3
isocp.shx
  0
STYLE
  2
KICADB
  70
0
  40
0
  41
1
  42
1
  50
0
  71
0
  3
isocp.shx
  0
STYLE
  2
KICADI
  70
0
  40
0
  41
1
  42
1
  50
15
  71
0
  3
isocp.shx
  0
STYLE
  2
KICADBI
  70
0
  40
0
  41
1
  42
1
  50
15
  71
0
  3
isocp.shx
  0
ENDTAB
  0
TABLE
  2
LAYER
  70
1
  0
LAYER
  2
BLACK
  70
0
  62
7
  6
CONTINUOUS
  0
ENDTAB
  0
ENDSEC
  0
SECTION
  2
ENTITIES
0
LINE
8
BLACK
6
CONTINUOUS
10
38.6937
20
93.8
11
38.7052
21
94.7231
0
LINE
8
BLACK
6
CONTINUOUS
10
38.7052
20
94.7231
11
38.7491
21
95.6456
0
LINE
8
BLACK
6
CONTINUOUS
10
38.7491
20
95.6456
11
38.8251
21
96.566
0
LINE
8
BLACK
6
CONTINUOUS
10
38.8251
20
96.566
11
38.9333
21
97.4832
0
LINE
8
BLACK
6
CONTINUOUS
10
38.9333
20
97.4832
11
39.0734
21
98.396
0
LINE
8
BLACK
6
CONTINUOUS
10
39.0734
20
98.396
11
39.2454
21
99.3034
0
LINE
8
BLACK
6
CONTINUOUS
10
39.2454
20
99.3034
11
39.449
21
100.204
0
LINE
8
BLACK
6
CONTINUOUS
10
39.449
20
100.204
11
39.684
21
101.097
0
LINE
8
BLACK
6
CONTINUOUS
10
39.684
20
101.097
11
39.95
21
101.982
0
LINE
8
BLACK
6
CONTINUOUS
10
39.95
20
101.982
11
40.2468
21
102.856
0
LINE
8
BLACK
6
CONTINUOUS
10
40.2468
20
102.856
11
40.574
21
103.72
0
LINE
8
BLACK
6
CONTINUOUS
10
40.574
20
103.72
11
40.9311
21
104.572
0
LINE
8
BLACK
6
CONTINUOUS
10
40.9311
20
104.572
11
41.3178
21
105.41
0
LINE
8
BLACK
6
CONTINUOUS
10
41.3178
20
105.41
11
41.7336
21
106.235
0
LINE
8
BLACK
6
CONTINUOUS
10
41.7336
20
106.235
11
41.7336
21
106.235
0
LINE
8
BLACK
6
CONTINUOUS
10
41.7336
20
106.235
11
41.7668
21
106.267
0
LINE
8
BLACK
6
CONTINUOUS
10
41.7668
20
106.267
11
41.7827
21
106.27
0
LINE
8
BLACK
6
CONTINUOUS
10
41.7827
20
106.27
11
42.2673
21
107.101
0
LINE
8
BLACK
6
CONTINUOUS
10
42.2673
20
107.101
11
42.8051
21
107.961
0
LINE
8
BLACK
6
CONTINUOUS
10
42.8051
20
107.961
11
43.3695
21
108.804
0
LINE
8
BLACK
6
CONTINUOUS
10
43.3695
20
108.804
11
43.9598
21
109.629
0
LINE
8
BLACK
6
CONTINUOUS
10
43.9598
20
109.629
11
44.5754
21
110.436
0
LINE
8
BLACK
6
CONTINUOUS
10
44.5754
20
110.436
11
45.2158
21
111.223
0
LINE
8
BLACK
6
CONTINUOUS
10
45.2158
20
111.223
11
45.8804
21
111.989
0
LINE
8
BLACK
6
CONTINUOUS
10
45.8804
20
111.989
11
46.5685
21
112.735
0
LINE
8
BLACK
6
CONTINUOUS
10
46.5685
20
112.735
11
47.2795
21
113.458
0
LINE
8
BLACK
6
CONTINUOUS
10
47.2795
20
113.458
11
48.0126
21
114.16
0
LINE
8
BLACK
6
CONTINUOUS
10
48.0126
20
114.16
11
48.7672
21
114.838
0
LINE
8
BLACK
6
CONTINUOUS
10
48.7672
20
114.838
11
48.7672
21
114.838
0
LINE
8
BLACK
6
CONTINUOUS
10
48.7672
20
114.838
11
48.7675
21
114.838
0
LINE
8
BLACK
6
CONTINUOUS
10
48.7675
20
114.838
11
48.7676
21
114.838
0
LINE
8
BLACK
6
CONTINUOUS
10
48.7676
20
114.838
11
50.0659
21
115.916
0
LINE
8
BLACK
6
CONTINUOUS
10
50.0659
20
115.916
11
51.3875
21
116.965
0
LINE
8
BLACK
6
CONTINUOUS
10
51.3875
20
116.965
11
52.7316
21
117.985
0
LINE
8
BLACK
6
CONTINUOUS
10
52.7316
20
117.985
11
54.0978
21
118.976
0
LINE
8
BLACK
6
CONTINUOUS
10
54.0978
20
118.976
11
55.4854
21
119.936
0
LINE
8
BLACK
6
CONTINUOUS
10
55.4854
20
119.936
11
56.8936
21
120.866
0
LINE
8
BLACK
6
CONTINUOUS
10
56.8936
20
120.866
11
58.3219
21
121.765
0
LINE
8
BLACK
6
CONTINUOUS
10
58.3219
20
121.765
11
59.7694
21
122.632
0
LINE
8
BLACK
6
CONTINUOUS
10
59.7694
20
122.632
11
61.2356
21
123.467
0
LINE
8
BLACK
6
CONTINUOUS
10
61.2356
20
123.467
11
62.7197
21
124.27
0
LINE
8
BLACK
6
CONTINUOUS
10
62.7197
20
124.27
11
64.2211
21
125.041
0
LINE
8
BLACK
6
CONTINUOUS
10
64.2211
20
125.041
11
65.7389
21
125.778
0
LINE
8
BLACK
6
CONTINUOUS
10
65.7389
20
125.778
11
67.2725
21
126.482
0
LINE
8
BLACK
6
CONTINUOUS
10
67.2725
20
126.482
11
68.8212
21
127.152
0
LINE
8
BLACK
6
CONTINUOUS
10
68.8212
20
127.152
11
70.3841
21
127.788
0
LINE
8
BLACK
6
CONTINUOUS
10
70.3841
20
127.788
11
71.9606
21
128.39
0
LINE
8
BLACK
6
CONTINUOUS
10
71.9606
20
128.39
11
73.5499
21
128.957
0
LINE
8
BLACK
6
CONTINUOUS
10
73.5499
20
128.957
11
75.1512
21
129.489
0
LINE
8
BLACK
6
CONTINUOUS
10
75.1512
20
129.489
11
76.7638
21
129.987
0
LINE
8
BLACK
6
CONTINUOUS
10
76.7638
20
129.987
11
78.3366
21
130.434
0
LINE
8
BLACK
6
CONTINUOUS
10
78.3366
20
130.434
11
78.3418
21
130.447
0
LINE
8
BLACK
6
CONTINUOUS
10
78.3418
20
130.447
11
78.3807
21
130.472
0
LINE
8
BLACK
6
CONTINUOUS
10
78.3807
20
130.472
11
78.3807
21
130.472
0
LINE
8
BLACK
6
CONTINUOUS
10
78.3807
20
130.472
11
79.8204
21
130.836
0
LINE
8
BLACK
6
CONTINUOUS
10
79.8204
20
130.836
11
81.2689
21
131.163
0
LINE
8
BLACK
6
CONTINUOUS
10
81.2689
20
131.163
11
82.7251
21
131.453
0
LINE
8
BLACK
6
CONTINUOUS
10
82.7251
20
131.453
11
84.1883
21
131.706
0
LINE
8
BLACK
6
CONTINUOUS
10
84.1883
20
131.706
11
85.6573
21
131.921
0
LINE
8
BLACK
6
CONTINUOUS
10
85.6573
20
131.921
11
87.1314
21
132.1
0
LINE
8
BLACK
6
CONTINUOUS
10
87.1314
20
132.1
11
88.6095
21
132.241
0
LINE
8
BLACK
6
CONTINUOUS
10
88.6095
20
132.241
11
90.0907
21
132.345
0
LINE
8
BLACK
6
CONTINUOUS
10
90.0907
20
132.345
11
91.5741
21
132.412
0
LINE
8
BLACK
6
CONTINUOUS
10
91.5741
20
132.412
11
93.0586
21
132.44
0
LINE
8
BLACK
6
CONTINUOUS
10
93.0586
20
132.44
11
94.5434
21
132.431
0
LINE
8
BLACK
6
CONTINUOUS
10
94.5434
20
132.431
11
96.0276
21
132.385
0
LINE
8
BLACK
6
CONTINUOUS
10
96.0276
20
132.385
11
97.51
21
132.301
0
LINE
8
BLACK
6
CONTINUOUS
10
97.51
20
132.301
11
98.9899
21
132.179
0
LINE
8
BLACK
6
CONTINUOUS
10
98.9899
20
132.179
11
100.466
21
132.021
0
LINE
8
BLACK
6
CONTINUOUS
10
100.466
20
132.021
11
101.938
21
131.824
0
LINE
8
BLACK
6
CONTINUOUS
10
101.938
20
131.824
11
103.404
21
131.591
0
LINE
8
BLACK
6
CONTINUOUS
10
103.404
20
131.591
11
104.864
21
131.32
0
LINE
8
BLACK
6
CONTINUOUS
10
104.864
20
131.32
11
106.317
21
131.013
0
LINE
8
BLACK
6
CONTINUOUS
10
106.317
20
131.013
11
107.762
21
130.669
0
LINE
8
BLACK
6
CONTINUOUS
10
107.762
20
130.669
11
109.197
21
130.288
0
LINE
8
BLACK
6
CONTINUOUS
10
109.197
20
130.288
11
110.622
21
129.872
0
LINE
8
BLACK
6
CONTINUOUS
10
110.622
20
129.872
11
110.622
21
129.872
0
LINE
8
BLACK
6
CONTINUOUS
10
110.622
20
129.872
11
110.66
21
129.845
0
LINE
8
BLACK
6
CONTINUOUS
10
110.66
20
129.845
11
110.668
21
129.822
0
LINE
8
BLACK
6
CONTINUOUS
10
110.668
20
129.822
11
112.181
21
129.219
0
LINE
8
BLACK
6
CONTINUOUS
10
112.181
20
129.219
11
113.758
21
128.627
0
LINE
8
BLACK
6
CONTINUOUS
10
113.758
20
128.627
11
115.346
21
128.068
0
LINE
8
BLACK
6
CONTINUOUS
10
115.346
20
128.068
11
116.945
21
127.541
0
LINE
8
BLACK
6
CONTINUOUS
10
116.945
20
127.541
11
118.555
21
127.047
0
LINE
8
BLACK
6
CONTINUOUS
10
118.555
20
127.047
11
120.174
21
126.585
0
LINE
8
BLACK
6
CONTINUOUS
10
120.174
20
126.585
11
121.802
21
126.157
0
LINE
8
BLACK
6
CONTINUOUS
10
121.802
20
126.157
11
123.439
21
125.762
0
LINE
8
BLACK
6
CONTINUOUS
10
123.439
20
125.762
11
125.083
21
125.4
0
LINE
8
BLACK
6
CONTINUOUS
10
125.083
20
125.4
11
126.735
21
125.072
0
LINE
8
BLACK
6
CONTINUOUS
10
126.735
20
125.072
11
128.393
21
124.777
0
LINE
8
BLACK
6
CONTINUOUS
10
128.393
20
124.777
11
130.056
21
124.517
0
LINE
8
BLACK
6
CONTINUOUS
10
130.056
20
124.517
11
131.724
21
124.29
0
LINE
8
BLACK
6
CONTINUOUS
10
131.724
20
124.29
11
133.397
21
124.097
0
LINE
8
BLACK
6
CONTINUOUS
10
133.397
20
124.097
11
135.073
21
123.938
0
LINE
8
BLACK
6
CONTINUOUS
10
135.073
20
123.938
11
136.752
21
123.814
0
LINE
8
BLACK
6
CONTINUOUS
10
136.752
20
123.814
11
138.434
21
123.724
0
LINE
8
BLACK
6
CONTINUOUS
10
138.434
20
123.724
11
140.117
21
123.668
0
LINE
8
BLACK
6
CONTINUOUS
10
140.117
20
123.668
11
141.745
21
123.646
0
LINE
8
BLACK
6
CONTINUOUS
10
141.745
20
123.646
11
141.752
21
123.657
0
LINE
8
BLACK
6
CONTINUOUS
10
141.752
20
123.657
11
141.8
21
123.675
0
LINE
8
BLACK
6
CONTINUOUS
10
141.8
20
123.675
11
165.2
21
123.675
0
LINE
8
BLACK
6
CONTINUOUS
10
165.2
20
123.675
11
165.204
21
123.674
0
LINE
8
BLACK
6
CONTINUOUS
10
165.204
20
123.674
11
165.206
21
123.675
0
LINE
8
BLACK
6
CONTINUOUS
10
165.206
20
123.675
11
165.206
21
123.675
0
LINE
8
BLACK
6
CONTINUOUS
10
165.206
20
123.675
11
165.873
21
123.601
0
LINE
8
BLACK
6
CONTINUOUS
10
165.873
20
123.601
11
166.534
21
123.49
0
LINE
8
BLACK
6
CONTINUOUS
10
166.534
20
123.49
11
167.189
21
123.344
0
LINE
8
BLACK
6
CONTINUOUS
10
167.189
20
123.344
11
167.834
21
123.163
0
LINE
8
BLACK
6
CONTINUOUS
10
167.834
20
123.163
11
168.469
21
122.946
0
LINE
8
BLACK
6
CONTINUOUS
10
168.469
20
122.946
11
169.091
21
122.695
0
LINE
8
BLACK
6
CONTINUOUS
10
169.091
20
122.695
11
169.698
21
122.411
0
LINE
8
BLACK
6
CONTINUOUS
10
169.698
20
122.411
11
170.289
21
122.094
0
LINE
8
BLACK
6
CONTINUOUS
10
170.289
20
122.094
11
170.862
21
121.745
0
LINE
8
BLACK
6
CONTINUOUS
10
170.862
20
121.745
11
171.415
21
121.365
0
LINE
8
BLACK
6
CONTINUOUS
10
171.415
20
121.365
11
171.946
21
120.956
0
LINE
8
BLACK
6
CONTINUOUS
10
171.946
20
120.956
11
172.454
21
120.519
0
LINE
8
BLACK
6
CONTINUOUS
10
172.454
20
120.519
11
172.938
21
120.054
0
LINE
8
BLACK
6
CONTINUOUS
10
172.938
20
120.054
11
173.395
21
119.564
0
LINE
8
BLACK
6
CONTINUOUS
10
173.395
20
119.564
11
173.826
21
119.049
0
LINE
8
BLACK
6
CONTINUOUS
10
173.826
20
119.049
11
174.227
21
118.512
0
LINE
8
BLACK
6
CONTINUOUS
10
174.227
20
118.512
11
174.599
21
117.954
0
LINE
8
BLACK
6
CONTINUOUS
10
174.599
20
117.954
11
174.939
21
117.376
0
LINE
8
BLACK
6
CONTINUOUS
10
174.939
20
117.376
11
175.248
21
116.781
0
LINE
8
BLACK
6
CONTINUOUS
10
175.248
20
116.781
11
175.523
21
116.169
0
LINE
8
BLACK
6
CONTINUOUS
10
175.523
20
116.169
11
175.765
21
115.544
0
LINE
8
BLACK
6
CONTINUOUS
10
175.765
20
115.544
11
175.973
21
114.906
0
LINE
8
BLACK
6
CONTINUOUS
10
175.973
20
114.906
11
176.145
21
114.258
0
LINE
8
BLACK
6
CONTINUOUS
10
176.145
20
114.258
11
176.282
21
113.602
0
LINE
8
BLACK
6
CONTINUOUS
10
176.282
20
113.602
11
176.383
21
112.939
0
LINE
8
BLACK
6
CONTINUOUS
10
176.383
20
112.939
11
176.447
21
112.271
0
LINE
8
BLACK
6
CONTINUOUS
10
176.447
20
112.271
11
176.475
21
111.601
0
LINE
8
BLACK
6
CONTINUOUS
10
176.475
20
111.601
11
176.475
21
111.601
0
LINE
8
BLACK
6
CONTINUOUS
10
176.475
20
111.601
11
176.461
21
111.557
0
LINE
8
BLACK
6
CONTINUOUS
10
176.461
20
111.557
11
176.424
21
111.529
0
LINE
8
BLACK
6
CONTINUOUS
10
176.424
20
111.529
11
176.378
21
111.528
0
LINE
8
BLACK
6
CONTINUOUS
10
176.378
20
111.528
11
175.996
21
111.253
0
LINE
8
BLACK
6
CONTINUOUS
10
175.996
20
111.253
11
175.588
21
110.917
0
LINE
8
BLACK
6
CONTINUOUS
10
175.588
20
110.917
11
175.204
21
110.553
0
LINE
8
BLACK
6
CONTINUOUS
10
175.204
20
110.553
11
174.845
21
110.165
0
LINE
8
BLACK
6
CONTINUOUS
10
174.845
20
110.165
11
174.513
21
109.754
0
LINE
8
BLACK
6
CONTINUOUS
10
174.513
20
109.754
11
174.209
21
109.321
0
LINE
8
BLACK
6
CONTINUOUS
10
174.209
20
109.321
11
173.934
21
108.869
0
LINE
8
BLACK
6
CONTINUOUS
10
173.934
20
108.869
11
173.691
21
108.4
0
LINE
8
BLACK
6
CONTINUOUS
10
173.691
20
108.4
11
173.479
21
107.915
0
LINE
8
BLACK
6
CONTINUOUS
10
173.479
20
107.915
11
173.3
21
107.418
0
LINE
8
BLACK
6
CONTINUOUS
10
173.3
20
107.418
11
173.155
21
106.909
0
LINE
8
BLACK
6
CONTINUOUS
10
173.155
20
106.909
11
173.047
21
106.402
0
LINE
8
BLACK
6
CONTINUOUS
10
173.047
20
106.402
11
173.049
21
106.391
0
LINE
8
BLACK
6
CONTINUOUS
10
173.049
20
106.391
11
173.049
21
106.391
0
LINE
8
BLACK
6
CONTINUOUS
10
173.049
20
106.391
11
173.049
21
106.391
0
LINE
8
BLACK
6
CONTINUOUS
10
173.049
20
106.391
11
173.043
21
106.382
0
LINE
8
BLACK
6
CONTINUOUS
10
173.043
20
106.382
11
172.777
21
104.897
0
LINE
8
BLACK
6
CONTINUOUS
10
172.777
20
104.897
11
172.541
21
103.396
0
LINE
8
BLACK
6
CONTINUOUS
10
172.541
20
103.396
11
172.338
21
101.891
0
LINE
8
BLACK
6
CONTINUOUS
10
172.338
20
101.891
11
172.168
21
100.382
0
LINE
8
BLACK
6
CONTINUOUS
10
172.168
20
100.382
11
172.031
21
98.8695
0
LINE
8
BLACK
6
CONTINUOUS
10
172.031
20
98.8695
11
171.927
21
97.3544
0
LINE
8
BLACK
6
CONTINUOUS
10
171.927
20
97.3544
11
171.856
21
95.8373
0
LINE
8
BLACK
6
CONTINUOUS
10
171.856
20
95.8373
11
171.819
21
94.3191
0
LINE
8
BLACK
6
CONTINUOUS
10
171.819
20
94.3191
11
171.815
21
92.8548
0
LINE
8
BLACK
6
CONTINUOUS
10
171.815
20
92.8548
11
171.826
21
92.8482
0
LINE
8
BLACK
6
CONTINUOUS
10
171.826
20
92.8482
11
171.844
21
92.8
0
LINE
8
BLACK
6
CONTINUOUS
10
171.844
20
92.8
11
171.844
21
57.8
0
LINE
8
BLACK
6
CONTINUOUS
10
171.844
20
57.8
11
171.843
21
57.7978
0
LINE
8
BLACK
6
CONTINUOUS
10
171.843
20
57.7978
11
171.844
21
57.7967
0
LINE
8
BLACK
6
CONTINUOUS
10
171.844
20
57.7967
11
171.843
21
57.7941
0
LINE
8
BLACK
6
CONTINUOUS
10
171.843
20
57.7941
11
171.839
21
57.7743
0
LINE
8
BLACK
6
CONTINUOUS
10
171.839
20
57.7743
11
171.839
21
57.7738
0
LINE
8
BLACK
6
CONTINUOUS
10
171.839
20
57.7738
11
171.805
21
56.6447
0
LINE
8
BLACK
6
CONTINUOUS
10
171.805
20
56.6447
11
171.806
21
55.4919
0
LINE
8
BLACK
6
CONTINUOUS
10
171.806
20
55.4919
11
171.84
21
54.3398
0
LINE
8
BLACK
6
CONTINUOUS
10
171.84
20
54.3398
11
171.909
21
53.1891
0
LINE
8
BLACK
6
CONTINUOUS
10
171.909
20
53.1891
11
172.013
21
52.041
0
LINE
8
BLACK
6
CONTINUOUS
10
172.013
20
52.041
11
172.15
21
50.8966
0
LINE
8
BLACK
6
CONTINUOUS
10
172.15
20
50.8966
11
172.322
21
49.7567
0
LINE
8
BLACK
6
CONTINUOUS
10
172.322
20
49.7567
11
172.527
21
48.6225
0
LINE
8
BLACK
6
CONTINUOUS
10
172.527
20
48.6225
11
172.767
21
47.4949
0
LINE
8
BLACK
6
CONTINUOUS
10
172.767
20
47.4949
11
173.039
21
46.3749
0
LINE
8
BLACK
6
CONTINUOUS
10
173.039
20
46.3749
11
173.345
21
45.2636
0
LINE
8
BLACK
6
CONTINUOUS
10
173.345
20
45.2636
11
173.684
21
44.1618
0
LINE
8
BLACK
6
CONTINUOUS
10
173.684
20
44.1618
11
174.056
21
43.0707
0
LINE
8
BLACK
6
CONTINUOUS
10
174.056
20
43.0707
11
174.46
21
41.9912
0
LINE
8
BLACK
6
CONTINUOUS
10
174.46
20
41.9912
11
174.896
21
40.9242
0
LINE
8
BLACK
6
CONTINUOUS
10
174.896
20
40.9242
11
175.364
21
39.8707
0
LINE
8
BLACK
6
CONTINUOUS
10
175.364
20
39.8707
11
175.858
21
38.8429
0
LINE
8
BLACK
6
CONTINUOUS
10
175.858
20
38.8429
11
175.867
21
38.8335
0
LINE
8
BLACK
6
CONTINUOUS
10
175.867
20
38.8335
11
175.874
21
38.7876
0
LINE
8
BLACK
6
CONTINUOUS
10
175.874
20
38.7876
11
175.866
21
38.7727
0
LINE
8
BLACK
6
CONTINUOUS
10
175.866
20
38.7727
11
176.167
21
38.2075
0
LINE
8
BLACK
6
CONTINUOUS
10
176.167
20
38.2075
11
176.523
21
37.6116
0
LINE
8
BLACK
6
CONTINUOUS
10
176.523
20
37.6116
11
176.909
21
37.0343
0
LINE
8
BLACK
6
CONTINUOUS
10
176.909
20
37.0343
11
177.323
21
36.477
0
LINE
8
BLACK
6
CONTINUOUS
10
177.323
20
36.477
11
177.765
21
35.9411
0
LINE
8
BLACK
6
CONTINUOUS
10
177.765
20
35.9411
11
178.232
21
35.4279
0
LINE
8
BLACK
6
CONTINUOUS
10
178.232
20
35.4279
11
178.725
21
34.9387
0
LINE
8
BLACK
6
CONTINUOUS
10
178.725
20
34.9387
11
179.242
21
34.4748
0
LINE
8
BLACK
6
CONTINUOUS
10
179.242
20
34.4748
11
179.781
21
34.0373
0
LINE
8
BLACK
6
CONTINUOUS
10
179.781
20
34.0373
11
180.341
21
33.6273
0
LINE
8
BLACK
6
CONTINUOUS
10
180.341
20
33.6273
11
180.921
21
33.2458
0
LINE
8
BLACK
6
CONTINUOUS
10
180.921
20
33.2458
11
181.52
21
32.8938
0
LINE
8
BLACK
6
CONTINUOUS
10
181.52
20
32.8938
11
182.135
21
32.5722
0
LINE
8
BLACK
6
CONTINUOUS
10
182.135
20
32.5722
11
182.766
21
32.2817
0
LINE
8
BLACK
6
CONTINUOUS
10
182.766
20
32.2817
11
183.41
21
32.0231
0
LINE
8
BLACK
6
CONTINUOUS
10
183.41
20
32.0231
11
184.067
21
31.797
0
LINE
8
BLACK
6
CONTINUOUS
10
184.067
20
31.797
11
184.734
21
31.6041
0
LINE
8
BLACK
6
CONTINUOUS
10
184.734
20
31.6041
11
185.357
21
31.4571
0
LINE
8
BLACK
6
CONTINUOUS
10
185.357
20
31.4571
11
185.37
21
31.4686
0
LINE
8
BLACK
6
CONTINUOUS
10
185.37
20
31.4686
11
185.416
21
31.4733
0
LINE
8
BLACK
6
CONTINUOUS
10
185.416
20
31.4733
11
185.456
21
31.45
0
LINE
8
BLACK
6
CONTINUOUS
10
185.456
20
31.45
11
185.475
21
31.4075
0
LINE
8
BLACK
6
CONTINUOUS
10
185.475
20
31.4075
11
185.543
21
30.5424
0
LINE
8
BLACK
6
CONTINUOUS
10
185.543
20
30.5424
11
185.573
21
29.6752
0
LINE
8
BLACK
6
CONTINUOUS
10
185.573
20
29.6752
11
185.566
21
28.8074
0
LINE
8
BLACK
6
CONTINUOUS
10
185.566
20
28.8074
11
185.52
21
27.9408
0
LINE
8
BLACK
6
CONTINUOUS
10
185.52
20
27.9408
11
185.437
21
27.0771
0
LINE
8
BLACK
6
CONTINUOUS
10
185.437
20
27.0771
11
185.316
21
26.2177
0
LINE
8
BLACK
6
CONTINUOUS
10
185.316
20
26.2177
11
185.158
21
25.3645
0
LINE
8
BLACK
6
CONTINUOUS
10
185.158
20
25.3645
11
184.962
21
24.5191
0
LINE
8
BLACK
6
CONTINUOUS
10
184.962
20
24.5191
11
184.73
21
23.683
0
LINE
8
BLACK
6
CONTINUOUS
10
184.73
20
23.683
11
184.461
21
22.8578
0
LINE
8
BLACK
6
CONTINUOUS
10
184.461
20
22.8578
11
184.157
21
22.0452
0
LINE
8
BLACK
6
CONTINUOUS
10
184.157
20
22.0452
11
183.817
21
21.2467
0
LINE
8
BLACK
6
CONTINUOUS
10
183.817
20
21.2467
11
183.442
21
20.4638
0
LINE
8
BLACK
6
CONTINUOUS
10
183.442
20
20.4638
11
183.034
21
19.698
0
LINE
8
BLACK
6
CONTINUOUS
10
183.034
20
19.698
11
182.593
21
18.9508
0
LINE
8
BLACK
6
CONTINUOUS
10
182.593
20
18.9508
11
182.119
21
18.2236
0
LINE
8
BLACK
6
CONTINUOUS
10
182.119
20
18.2236
11
181.615
21
17.5178
0
LINE
8
BLACK
6
CONTINUOUS
10
181.615
20
17.5178
11
181.079
21
16.8347
0
LINE
8
BLACK
6
CONTINUOUS
10
181.079
20
16.8347
11
180.515
21
16.1757
0
LINE
8
BLACK
6
CONTINUOUS
10
180.515
20
16.1757
11
179.922
21
15.542
0
LINE
8
BLACK
6
CONTINUOUS
10
179.922
20
15.542
11
179.302
21
14.9348
0
LINE
8
BLACK
6
CONTINUOUS
10
179.302
20
14.9348
11
178.656
21
14.3553
0
LINE
8
BLACK
6
CONTINUOUS
10
178.656
20
14.3553
11
177.985
21
13.8046
0
LINE
8
BLACK
6
CONTINUOUS
10
177.985
20
13.8046
11
177.291
21
13.2837
0
LINE
8
BLACK
6
CONTINUOUS
10
177.291
20
13.2837
11
176.575
21
12.7937
0
LINE
8
BLACK
6
CONTINUOUS
10
176.575
20
12.7937
11
175.838
21
12.3355
0
LINE
8
BLACK
6
CONTINUOUS
10
175.838
20
12.3355
11
175.838
21
12.3355
0
LINE
8
BLACK
6
CONTINUOUS
10
175.838
20
12.3355
11
175.793
21
12.3253
0
LINE
8
BLACK
6
CONTINUOUS
10
175.793
20
12.3253
11
175.758
21
12.3406
0
LINE
8
BLACK
6
CONTINUOUS
10
175.758
20
12.3406
11
175.274
21
12.2447
0
LINE
8
BLACK
6
CONTINUOUS
10
175.274
20
12.2447
11
174.73
21
12.1731
0
LINE
8
BLACK
6
CONTINUOUS
10
174.73
20
12.1731
11
174.183
21
12.1369
0
LINE
8
BLACK
6
CONTINUOUS
10
174.183
20
12.1369
11
173.635
21
12.136
0
LINE
8
BLACK
6
CONTINUOUS
10
173.635
20
12.136
11
173.088
21
12.1707
0
LINE
8
BLACK
6
CONTINUOUS
10
173.088
20
12.1707
11
172.544
21
12.2406
0
LINE
8
BLACK
6
CONTINUOUS
10
172.544
20
12.2406
11
172.006
21
12.3455
0
LINE
8
BLACK
6
CONTINUOUS
10
172.006
20
12.3455
11
171.476
21
12.485
0
LINE
8
BLACK
6
CONTINUOUS
10
171.476
20
12.485
11
170.956
21
12.6585
0
LINE
8
BLACK
6
CONTINUOUS
10
170.956
20
12.6585
11
170.448
21
12.8653
0
LINE
8
BLACK
6
CONTINUOUS
10
170.448
20
12.8653
11
169.955
21
13.1045
0
LINE
8
BLACK
6
CONTINUOUS
10
169.955
20
13.1045
11
169.478
21
13.375
0
LINE
8
BLACK
6
CONTINUOUS
10
169.478
20
13.375
11
169.02
21
13.6759
0
LINE
8
BLACK
6
CONTINUOUS
10
169.02
20
13.6759
11
168.582
21
14.0057
0
LINE
8
BLACK
6
CONTINUOUS
10
168.582
20
14.0057
11
168.207
21
14.3281
0
LINE
8
BLACK
6
CONTINUOUS
10
168.207
20
14.3281
11
168.195
21
14.3252
0
LINE
8
BLACK
6
CONTINUOUS
10
168.195
20
14.3252
11
168.152
21
14.3423
0
LINE
8
BLACK
6
CONTINUOUS
10
168.152
20
14.3423
11
168.144
21
14.3545
0
LINE
8
BLACK
6
CONTINUOUS
10
168.144
20
14.3545
11
166.371
21
15.8011
0
LINE
8
BLACK
6
CONTINUOUS
10
166.371
20
15.8011
11
164.563
21
17.2279
0
LINE
8
BLACK
6
CONTINUOUS
10
164.563
20
17.2279
11
162.733
21
18.6258
0
LINE
8
BLACK
6
CONTINUOUS
10
162.733
20
18.6258
11
160.881
21
19.9943
0
LINE
8
BLACK
6
CONTINUOUS
10
160.881
20
19.9943
11
159.008
21
21.3331
0
LINE
8
BLACK
6
CONTINUOUS
10
159.008
20
21.3331
11
157.113
21
22.642
0
LINE
8
BLACK
6
CONTINUOUS
10
157.113
20
22.642
11
155.198
21
23.9205
0
LINE
8
BLACK
6
CONTINUOUS
10
155.198
20
23.9205
11
153.263
21
25.1684
0
LINE
8
BLACK
6
CONTINUOUS
10
153.263
20
25.1684
11
151.308
21
26.3854
0
LINE
8
BLACK
6
CONTINUOUS
10
151.308
20
26.3854
11
149.334
21
27.571
0
LINE
8
BLACK
6
CONTINUOUS
10
149.334
20
27.571
11
147.342
21
28.7251
0
LINE
8
BLACK
6
CONTINUOUS
10
147.342
20
28.7251
11
145.331
21
29.8473
0
LINE
8
BLACK
6
CONTINUOUS
10
145.331
20
29.8473
11
143.303
21
30.9374
0
LINE
8
BLACK
6
CONTINUOUS
10
143.303
20
30.9374
11
141.257
21
31.995
0
LINE
8
BLACK
6
CONTINUOUS
10
141.257
20
31.995
11
139.195
21
33.0199
0
LINE
8
BLACK
6
CONTINUOUS
10
139.195
20
33.0199
11
137.117
21
34.0119
0
LINE
8
BLACK
6
CONTINUOUS
10
137.117
20
34.0119
11
135.023
21
34.9707
0
LINE
8
BLACK
6
CONTINUOUS
10
135.023
20
34.9707
11
132.915
21
35.896
0
LINE
8
BLACK
6
CONTINUOUS
10
132.915
20
35.896
11
130.792
21
36.7876
0
LINE
8
BLACK
6
CONTINUOUS
10
130.792
20
36.7876
11
128.655
21
37.6454
0
LINE
8
BLACK
6
CONTINUOUS
10
128.655
20
37.6454
11
126.504
21
38.469
0
LINE
8
BLACK
6
CONTINUOUS
10
126.504
20
38.469
11
124.341
21
39.2582
0
LINE
8
BLACK
6
CONTINUOUS
10
124.341
20
39.2582
11
122.166
21
40.0129
0
LINE
8
BLACK
6
CONTINUOUS
10
122.166
20
40.0129
11
119.992
21
40.7286
0
LINE
8
BLACK
6
CONTINUOUS
10
119.992
20
40.7286
11
119.977
21
40.7286
0
LINE
8
BLACK
6
CONTINUOUS
10
119.977
20
40.7286
11
119.975
21
40.7298
0
LINE
8
BLACK
6
CONTINUOUS
10
119.975
20
40.7298
11
119.973
21
40.7299
0
LINE
8
BLACK
6
CONTINUOUS
10
119.973
20
40.7299
11
119.962
21
40.739
0
LINE
8
BLACK
6
CONTINUOUS
10
119.962
20
40.739
11
118.447
21
41.2927
0
LINE
8
BLACK
6
CONTINUOUS
10
118.447
20
41.2927
11
116.907
21
41.8158
0
LINE
8
BLACK
6
CONTINUOUS
10
116.907
20
41.8158
11
115.355
21
42.3033
0
LINE
8
BLACK
6
CONTINUOUS
10
115.355
20
42.3033
11
113.793
21
42.7548
0
LINE
8
BLACK
6
CONTINUOUS
10
113.793
20
42.7548
11
112.22
21
43.1703
0
LINE
8
BLACK
6
CONTINUOUS
10
112.22
20
43.1703
11
110.639
21
43.5494
0
LINE
8
BLACK
6
CONTINUOUS
10
110.639
20
43.5494
11
109.048
21
43.892
0
LINE
8
BLACK
6
CONTINUOUS
10
109.048
20
43.892
11
107.451
21
44.1978
0
LINE
8
BLACK
6
CONTINUOUS
10
107.451
20
44.1978
11
105.847
21
44.4668
0
LINE
8
BLACK
6
CONTINUOUS
10
105.847
20
44.4668
11
104.237
21
44.6987
0
LINE
8
BLACK
6
CONTINUOUS
10
104.237
20
44.6987
11
102.622
21
44.8934
0
LINE
8
BLACK
6
CONTINUOUS
10
102.622
20
44.8934
11
101.003
21
45.0509
0
LINE
8
BLACK
6
CONTINUOUS
10
101.003
20
45.0509
11
99.3809
21
45.171
0
LINE
8
BLACK
6
CONTINUOUS
10
99.3809
20
45.171
11
97.7565
21
45.2538
0
LINE
8
BLACK
6
CONTINUOUS
10
97.7565
20
45.2538
11
96.1305
21
45.299
0
LINE
8
BLACK
6
CONTINUOUS
10
96.1305
20
45.299
11
94.504
21
45.3068
0
LINE
8
BLACK
6
CONTINUOUS
10
94.504
20
45.3068
11
92.8777
21
45.2771
0
LINE
8
BLACK
6
CONTINUOUS
10
92.8777
20
45.2771
11
91.2525
21
45.21
0
LINE
8
BLACK
6
CONTINUOUS
10
91.2525
20
45.21
11
89.6294
21
45.1054
0
LINE
8
BLACK
6
CONTINUOUS
10
89.6294
20
45.1054
11
88.009
21
44.9634
0
LINE
8
BLACK
6
CONTINUOUS
10
88.009
20
44.9634
11
86.3924
21
44.7842
0
LINE
8
BLACK
6
CONTINUOUS
10
86.3924
20
44.7842
11
84.7803
21
44.5677
0
LINE
8
BLACK
6
CONTINUOUS
10
84.7803
20
44.5677
11
83.1736
21
44.3142
0
LINE
8
BLACK
6
CONTINUOUS
10
83.1736
20
44.3142
11
81.5732
21
44.0237
0
LINE
8
BLACK
6
CONTINUOUS
10
81.5732
20
44.0237
11
79.9799
21
43.6963
0
LINE
8
BLACK
6
CONTINUOUS
10
79.9799
20
43.6963
11
78.3946
21
43.3324
0
LINE
8
BLACK
6
CONTINUOUS
10
78.3946
20
43.3324
11
76.8316
21
42.9355
0
LINE
8
BLACK
6
CONTINUOUS
10
76.8316
20
42.9355
11
76.8297
21
42.9343
0
LINE
8
BLACK
6
CONTINUOUS
10
76.8297
20
42.9343
11
76.8215
21
42.9281
0
LINE
8
BLACK
6
CONTINUOUS
10
76.8215
20
42.9281
11
59.4215
21
37.7281
0
LINE
8
BLACK
6
CONTINUOUS
10
59.4215
20
37.7281
11
59.3956
21
37.7251
0
LINE
8
BLACK
6
CONTINUOUS
10
59.3956
20
37.7251
11
59.3714
21
37.7356
0
LINE
8
BLACK
6
CONTINUOUS
10
59.3714
20
37.7356
11
59.0647
21
37.5888
0
LINE
8
BLACK
6
CONTINUOUS
10
59.0647
20
37.5888
11
58.7272
21
37.3902
0
LINE
8
BLACK
6
CONTINUOUS
10
58.7272
20
37.3902
11
58.4079
21
37.1634
0
LINE
8
BLACK
6
CONTINUOUS
10
58.4079
20
37.1634
11
58.1091
21
36.9101
0
LINE
8
BLACK
6
CONTINUOUS
10
58.1091
20
36.9101
11
57.8331
21
36.6322
0
LINE
8
BLACK
6
CONTINUOUS
10
57.8331
20
36.6322
11
57.5819
21
36.3317
0
LINE
8
BLACK
6
CONTINUOUS
10
57.5819
20
36.3317
11
57.3573
21
36.0108
0
LINE
8
BLACK
6
CONTINUOUS
10
57.3573
20
36.0108
11
57.161
21
35.672
0
LINE
8
BLACK
6
CONTINUOUS
10
57.161
20
35.672
11
56.9943
21
35.3175
0
LINE
8
BLACK
6
CONTINUOUS
10
56.9943
20
35.3175
11
56.8586
21
34.9501
0
LINE
8
BLACK
6
CONTINUOUS
10
56.8586
20
34.9501
11
56.7548
21
34.5725
0
LINE
8
BLACK
6
CONTINUOUS
10
56.7548
20
34.5725
11
56.6836
21
34.1873
0
LINE
8
BLACK
6
CONTINUOUS
10
56.6836
20
34.1873
11
56.651
21
33.8519
0
LINE
8
BLACK
6
CONTINUOUS
10
56.651
20
33.8519
11
56.672
21
33.8209
0
LINE
8
BLACK
6
CONTINUOUS
10
56.672
20
33.8209
11
56.6705
21
33.7746
0
LINE
8
BLACK
6
CONTINUOUS
10
56.6705
20
33.7746
11
56.6421
21
33.7379
0
LINE
8
BLACK
6
CONTINUOUS
10
56.6421
20
33.7379
11
56.5976
21
33.725
0
LINE
8
BLACK
6
CONTINUOUS
10
56.5976
20
33.725
11
55.7687
21
33.7702
0
LINE
8
BLACK
6
CONTINUOUS
10
55.7687
20
33.7702
11
54.9427
21
33.8526
0
LINE
8
BLACK
6
CONTINUOUS
10
54.9427
20
33.8526
11
54.1211
21
33.9719
0
LINE
8
BLACK
6
CONTINUOUS
10
54.1211
20
33.9719
11
53.3058
21
34.1279
0
LINE
8
BLACK
6
CONTINUOUS
10
53.3058
20
34.1279
11
52.4983
21
34.3203
0
LINE
8
BLACK
6
CONTINUOUS
10
52.4983
20
34.3203
11
51.7002
21
34.5487
0
LINE
8
BLACK
6
CONTINUOUS
10
51.7002
20
34.5487
11
50.9132
21
34.8127
0
LINE
8
BLACK
6
CONTINUOUS
10
50.9132
20
34.8127
11
50.1388
21
35.1117
0
LINE
8
BLACK
6
CONTINUOUS
10
50.1388
20
35.1117
11
49.3786
21
35.4452
0
LINE
8
BLACK
6
CONTINUOUS
10
49.3786
20
35.4452
11
48.6341
21
35.8124
0
LINE
8
BLACK
6
CONTINUOUS
10
48.6341
20
35.8124
11
47.9068
21
36.2127
0
LINE
8
BLACK
6
CONTINUOUS
10
47.9068
20
36.2127
11
47.1982
21
36.6451
0
LINE
8
BLACK
6
CONTINUOUS
10
47.1982
20
36.6451
11
46.5097
21
37.1089
0
LINE
8
BLACK
6
CONTINUOUS
10
46.5097
20
37.1089
11
45.8427
21
37.6031
0
LINE
8
BLACK
6
CONTINUOUS
10
45.8427
20
37.6031
11
45.1985
21
38.1267
0
LINE
8
BLACK
6
CONTINUOUS
10
45.1985
20
38.1267
11
44.5785
21
38.6787
0
LINE
8
BLACK
6
CONTINUOUS
10
44.5785
20
38.6787
11
43.9839
21
39.2579
0
LINE
8
BLACK
6
CONTINUOUS
10
43.9839
20
39.2579
11
43.4158
21
39.8632
0
LINE
8
BLACK
6
CONTINUOUS
10
43.4158
20
39.8632
11
42.8754
21
40.4934
0
LINE
8
BLACK
6
CONTINUOUS
10
42.8754
20
40.4934
11
42.3639
21
41.1472
0
LINE
8
BLACK
6
CONTINUOUS
10
42.3639
20
41.1472
11
41.8821
21
41.8232
0
LINE
8
BLACK
6
CONTINUOUS
10
41.8821
20
41.8232
11
41.4312
21
42.5202
0
LINE
8
BLACK
6
CONTINUOUS
10
41.4312
20
42.5202
11
41.012
21
43.2367
0
LINE
8
BLACK
6
CONTINUOUS
10
41.012
20
43.2367
11
40.6254
21
43.9713
0
LINE
8
BLACK
6
CONTINUOUS
10
40.6254
20
43.9713
11
40.272
21
44.7225
0
LINE
8
BLACK
6
CONTINUOUS
10
40.272
20
44.7225
11
39.9528
21
45.4888
0
LINE
8
BLACK
6
CONTINUOUS
10
39.9528
20
45.4888
11
39.6682
21
46.2686
0
LINE
8
BLACK
6
CONTINUOUS
10
39.6682
20
46.2686
11
39.4188
21
47.0604
0
LINE
8
BLACK
6
CONTINUOUS
10
39.4188
20
47.0604
11
39.2053
21
47.8626
0
LINE
8
BLACK
6
CONTINUOUS
10
39.2053
20
47.8626
11
39.0279
21
48.6735
0
LINE
8
BLACK
6
CONTINUOUS
10
39.0279
20
48.6735
11
38.887
21
49.4916
0
LINE
8
BLACK
6
CONTINUOUS
10
38.887
20
49.4916
11
38.783
21
50.3152
0
LINE
8
BLACK
6
CONTINUOUS
10
38.783
20
50.3152
11
38.7161
21
51.1427
0
LINE
8
BLACK
6
CONTINUOUS
10
38.7161
20
51.1427
11
38.6863
21
51.9723
0
LINE
8
BLACK
6
CONTINUOUS
10
38.6863
20
51.9723
11
38.6937
21
52.8
0
LINE
8
BLACK
6
CONTINUOUS
10
38.6937
20
52.8
11
38.6937
21
52.8
0
LINE
8
BLACK
6
CONTINUOUS
10
38.6937
20
52.8
11
38.6937
21
93.8
0
LINE
8
BLACK
6
CONTINUOUS
10
38.6937
20
93.8
11
38.6937
21
93.8
0
LINE
8
BLACK
6
CONTINUOUS
10
38.8434
20
52.7985
11
38.8436
21
52.7976
0
LINE
8
BLACK
6
CONTINUOUS
10
38.8436
20
52.7976
11
38.8429
21
52.7956
0
LINE
8
BLACK
6
CONTINUOUS
10
38.8429
20
52.7956
11
38.8392
21
52.7743
0
LINE
8
BLACK
6
CONTINUOUS
10
38.8392
20
52.7743
11
38.8388
21
52.7739
0
LINE
8
BLACK
6
CONTINUOUS
10
38.8388
20
52.7739
11
38.8316
21
51.9742
0
LINE
8
BLACK
6
CONTINUOUS
10
38.8316
20
51.9742
11
38.8612
21
51.1511
0
LINE
8
BLACK
6
CONTINUOUS
10
38.8612
20
51.1511
11
38.9276
21
50.3302
0
LINE
8
BLACK
6
CONTINUOUS
10
38.9276
20
50.3302
11
39.0308
21
49.5131
0
LINE
8
BLACK
6
CONTINUOUS
10
39.0308
20
49.5131
11
39.1706
21
48.7014
0
LINE
8
BLACK
6
CONTINUOUS
10
39.1706
20
48.7014
11
39.3465
21
47.8968
0
LINE
8
BLACK
6
CONTINUOUS
10
39.3465
20
47.8968
11
39.5584
21
47.1009
0
LINE
8
BLACK
6
CONTINUOUS
10
39.5584
20
47.1009
11
39.8058
21
46.3154
0
LINE
8
BLACK
6
CONTINUOUS
10
39.8058
20
46.3154
11
40.0882
21
45.5417
0
LINE
8
BLACK
6
CONTINUOUS
10
40.0882
20
45.5417
11
40.4049
21
44.7814
0
LINE
8
BLACK
6
CONTINUOUS
10
40.4049
20
44.7814
11
40.7555
21
44.0361
0
LINE
8
BLACK
6
CONTINUOUS
10
40.7555
20
44.0361
11
41.1391
21
43.3073
0
LINE
8
BLACK
6
CONTINUOUS
10
41.1391
20
43.3073
11
41.555
21
42.5964
0
LINE
8
BLACK
6
CONTINUOUS
10
41.555
20
42.5964
11
42.0024
21
41.9049
0
LINE
8
BLACK
6
CONTINUOUS
10
42.0024
20
41.9049
11
42.4803
21
41.2342
0
LINE
8
BLACK
6
CONTINUOUS
10
42.4803
20
41.2342
11
42.9879
21
40.5855
0
LINE
8
BLACK
6
CONTINUOUS
10
42.9879
20
40.5855
11
43.524
21
39.9603
0
LINE
8
BLACK
6
CONTINUOUS
10
43.524
20
39.9603
11
44.0876
21
39.3597
0
LINE
8
BLACK
6
CONTINUOUS
10
44.0876
20
39.3597
11
44.6776
21
38.7851
0
LINE
8
BLACK
6
CONTINUOUS
10
44.6776
20
38.7851
11
45.2927
21
38.2374
0
LINE
8
BLACK
6
CONTINUOUS
10
45.2927
20
38.2374
11
45.9319
21
37.7179
0
LINE
8
BLACK
6
CONTINUOUS
10
45.9319
20
37.7179
11
46.5936
21
37.2276
0
LINE
8
BLACK
6
CONTINUOUS
10
46.5936
20
37.2276
11
47.2767
21
36.7675
0
LINE
8
BLACK
6
CONTINUOUS
10
47.2767
20
36.7675
11
47.9797
21
36.3384
0
LINE
8
BLACK
6
CONTINUOUS
10
47.9797
20
36.3384
11
48.7013
21
35.9413
0
LINE
8
BLACK
6
CONTINUOUS
10
48.7013
20
35.9413
11
49.4399
21
35.577
0
LINE
8
BLACK
6
CONTINUOUS
10
49.4399
20
35.577
11
50.1942
21
35.2462
0
LINE
8
BLACK
6
CONTINUOUS
10
50.1942
20
35.2462
11
50.9625
21
34.9495
0
LINE
8
BLACK
6
CONTINUOUS
10
50.9625
20
34.9495
11
51.7433
21
34.6876
0
LINE
8
BLACK
6
CONTINUOUS
10
51.7433
20
34.6876
11
52.5351
21
34.4609
0
LINE
8
BLACK
6
CONTINUOUS
10
52.5351
20
34.4609
11
53.3363
21
34.27
0
LINE
8
BLACK
6
CONTINUOUS
10
53.3363
20
34.27
11
54.1453
21
34.1152
0
LINE
8
BLACK
6
CONTINUOUS
10
54.1453
20
34.1152
11
54.9603
21
33.9969
0
LINE
8
BLACK
6
CONTINUOUS
10
54.9603
20
33.9969
11
55.7799
21
33.9152
0
LINE
8
BLACK
6
CONTINUOUS
10
55.7799
20
33.9152
11
56.5569
21
33.8728
0
LINE
8
BLACK
6
CONTINUOUS
10
56.5569
20
33.8728
11
56.5888
21
34.2007
0
LINE
8
BLACK
6
CONTINUOUS
10
56.5888
20
34.2007
11
56.6614
21
34.5939
0
LINE
8
BLACK
6
CONTINUOUS
10
56.6614
20
34.5939
11
56.7674
21
34.9794
0
LINE
8
BLACK
6
CONTINUOUS
10
56.7674
20
34.9794
11
56.906
21
35.3545
0
LINE
8
BLACK
6
CONTINUOUS
10
56.906
20
35.3545
11
57.0761
21
35.7164
0
LINE
8
BLACK
6
CONTINUOUS
10
57.0761
20
35.7164
11
57.2766
21
36.0624
0
LINE
8
BLACK
6
CONTINUOUS
10
57.2766
20
36.0624
11
57.5059
21
36.3899
0
LINE
8
BLACK
6
CONTINUOUS
10
57.5059
20
36.3899
11
57.7623
21
36.6967
0
LINE
8
BLACK
6
CONTINUOUS
10
57.7623
20
36.6967
11
58.0441
21
36.9804
0
LINE
8
BLACK
6
CONTINUOUS
10
58.0441
20
36.9804
11
58.3491
21
37.239
0
LINE
8
BLACK
6
CONTINUOUS
10
58.3491
20
37.239
11
58.6751
21
37.4705
0
LINE
8
BLACK
6
CONTINUOUS
10
58.6751
20
37.4705
11
59.0197
21
37.6734
0
LINE
8
BLACK
6
CONTINUOUS
10
59.0197
20
37.6734
11
59.3331
21
37.8234
0
LINE
8
BLACK
6
CONTINUOUS
10
59.3331
20
37.8234
11
59.3374
21
37.8412
0
LINE
8
BLACK
6
CONTINUOUS
10
59.3374
20
37.8412
11
59.3785
21
37.8719
0
LINE
8
BLACK
6
CONTINUOUS
10
59.3785
20
37.8719
11
76.7785
21
43.0719
0
LINE
8
BLACK
6
CONTINUOUS
10
76.7785
20
43.0719
11
76.78
21
43.072
0
LINE
8
BLACK
6
CONTINUOUS
10
76.78
20
43.072
11
76.7807
21
43.0725
0
LINE
8
BLACK
6
CONTINUOUS
10
76.7807
20
43.0725
11
76.7807
21
43.0725
0
LINE
8
BLACK
6
CONTINUOUS
10
76.7807
20
43.0725
11
78.3605
21
43.4737
0
LINE
8
BLACK
6
CONTINUOUS
10
78.3605
20
43.4737
11
79.949
21
43.8384
0
LINE
8
BLACK
6
CONTINUOUS
10
79.949
20
43.8384
11
81.5456
21
44.1663
0
LINE
8
BLACK
6
CONTINUOUS
10
81.5456
20
44.1663
11
83.1493
21
44.4574
0
LINE
8
BLACK
6
CONTINUOUS
10
83.1493
20
44.4574
11
84.7593
21
44.7115
0
LINE
8
BLACK
6
CONTINUOUS
10
84.7593
20
44.7115
11
86.3747
21
44.9284
0
LINE
8
BLACK
6
CONTINUOUS
10
86.3747
20
44.9284
11
87.9947
21
45.1081
0
LINE
8
BLACK
6
CONTINUOUS
10
87.9947
20
45.1081
11
89.6183
21
45.2503
0
LINE
8
BLACK
6
CONTINUOUS
10
89.6183
20
45.2503
11
91.2449
21
45.3551
0
LINE
8
BLACK
6
CONTINUOUS
10
91.2449
20
45.3551
11
92.8734
21
45.4224
0
LINE
8
BLACK
6
CONTINUOUS
10
92.8734
20
45.4224
11
94.503
21
45.4521
0
LINE
8
BLACK
6
CONTINUOUS
10
94.503
20
45.4521
11
96.1329
21
45.4443
0
LINE
8
BLACK
6
CONTINUOUS
10
96.1329
20
45.4443
11
97.7622
21
45.399
0
LINE
8
BLACK
6
CONTINUOUS
10
97.7622
20
45.399
11
99.39
21
45.3161
0
LINE
8
BLACK
6
CONTINUOUS
10
99.39
20
45.3161
11
101.015
21
45.1957
0
LINE
8
BLACK
6
CONTINUOUS
10
101.015
20
45.1957
11
102.638
21
45.0379
0
LINE
8
BLACK
6
CONTINUOUS
10
102.638
20
45.0379
11
104.256
21
44.8427
0
LINE
8
BLACK
6
CONTINUOUS
10
104.256
20
44.8427
11
105.869
21
44.6104
0
LINE
8
BLACK
6
CONTINUOUS
10
105.869
20
44.6104
11
107.477
21
44.3409
0
LINE
8
BLACK
6
CONTINUOUS
10
107.477
20
44.3409
11
109.077
21
44.0344
0
LINE
8
BLACK
6
CONTINUOUS
10
109.077
20
44.0344
11
110.671
21
43.6911
0
LINE
8
BLACK
6
CONTINUOUS
10
110.671
20
43.6911
11
112.256
21
43.3112
0
LINE
8
BLACK
6
CONTINUOUS
10
112.256
20
43.3112
11
113.832
21
42.8949
0
LINE
8
BLACK
6
CONTINUOUS
10
113.832
20
42.8949
11
115.397
21
42.4424
0
LINE
8
BLACK
6
CONTINUOUS
10
115.397
20
42.4424
11
116.952
21
41.9539
0
LINE
8
BLACK
6
CONTINUOUS
10
116.952
20
41.9539
11
118.496
21
41.4297
0
LINE
8
BLACK
6
CONTINUOUS
10
118.496
20
41.4297
11
120.024
21
40.8709
0
LINE
8
BLACK
6
CONTINUOUS
10
120.024
20
40.8709
11
122.212
21
40.1507
0
LINE
8
BLACK
6
CONTINUOUS
10
122.212
20
40.1507
11
124.39
21
39.3952
0
LINE
8
BLACK
6
CONTINUOUS
10
124.39
20
39.3952
11
126.555
21
38.6052
0
LINE
8
BLACK
6
CONTINUOUS
10
126.555
20
38.6052
11
128.708
21
37.7807
0
LINE
8
BLACK
6
CONTINUOUS
10
128.708
20
37.7807
11
130.847
21
36.9222
0
LINE
8
BLACK
6
CONTINUOUS
10
130.847
20
36.9222
11
132.972
21
36.0296
0
LINE
8
BLACK
6
CONTINUOUS
10
132.972
20
36.0296
11
135.083
21
35.1034
0
LINE
8
BLACK
6
CONTINUOUS
10
135.083
20
35.1034
11
137.179
21
34.1436
0
LINE
8
BLACK
6
CONTINUOUS
10
137.179
20
34.1436
11
139.259
21
33.1507
0
LINE
8
BLACK
6
CONTINUOUS
10
139.259
20
33.1507
11
141.323
21
32.1247
0
LINE
8
BLACK
6
CONTINUOUS
10
141.323
20
32.1247
11
143.37
21
31.066
0
LINE
8
BLACK
6
CONTINUOUS
10
143.37
20
31.066
11
145.401
21
29.9748
0
LINE
8
BLACK
6
CONTINUOUS
10
145.401
20
29.9748
11
147.413
21
28.8515
0
LINE
8
BLACK
6
CONTINUOUS
10
147.413
20
28.8515
11
149.408
21
27.6963
0
LINE
8
BLACK
6
CONTINUOUS
10
149.408
20
27.6963
11
151.384
21
26.5094
0
LINE
8
BLACK
6
CONTINUOUS
10
151.384
20
26.5094
11
153.341
21
25.2913
0
LINE
8
BLACK
6
CONTINUOUS
10
153.341
20
25.2913
11
155.278
21
24.0421
0
LINE
8
BLACK
6
CONTINUOUS
10
155.278
20
24.0421
11
157.195
21
22.7623
0
LINE
8
BLACK
6
CONTINUOUS
10
157.195
20
22.7623
11
159.092
21
21.4521
0
LINE
8
BLACK
6
CONTINUOUS
10
159.092
20
21.4521
11
160.967
21
20.1119
0
LINE
8
BLACK
6
CONTINUOUS
10
160.967
20
20.1119
11
162.821
21
18.742
0
LINE
8
BLACK
6
CONTINUOUS
10
162.821
20
18.742
11
164.652
21
17.3428
0
LINE
8
BLACK
6
CONTINUOUS
10
164.652
20
17.3428
11
166.462
21
15.9146
0
LINE
8
BLACK
6
CONTINUOUS
10
166.462
20
15.9146
11
168.248
21
14.4577
0
LINE
8
BLACK
6
CONTINUOUS
10
168.248
20
14.4577
11
168.248
21
14.4577
0
LINE
8
BLACK
6
CONTINUOUS
10
168.248
20
14.4577
11
168.273
21
14.4186
0
LINE
8
BLACK
6
CONTINUOUS
10
168.273
20
14.4186
11
168.271
21
14.3987
0
LINE
8
BLACK
6
CONTINUOUS
10
168.271
20
14.3987
11
168.642
21
14.0802
0
LINE
8
BLACK
6
CONTINUOUS
10
168.642
20
14.0802
11
169.075
21
13.7541
0
LINE
8
BLACK
6
CONTINUOUS
10
169.075
20
13.7541
11
169.528
21
13.4566
0
LINE
8
BLACK
6
CONTINUOUS
10
169.528
20
13.4566
11
169.999
21
13.1891
0
LINE
8
BLACK
6
CONTINUOUS
10
169.999
20
13.1891
11
170.487
21
12.9526
0
LINE
8
BLACK
6
CONTINUOUS
10
170.487
20
12.9526
11
170.989
21
12.7482
0
LINE
8
BLACK
6
CONTINUOUS
10
170.989
20
12.7482
11
171.503
21
12.5767
0
LINE
8
BLACK
6
CONTINUOUS
10
171.503
20
12.5767
11
172.027
21
12.4387
0
LINE
8
BLACK
6
CONTINUOUS
10
172.027
20
12.4387
11
172.559
21
12.335
0
LINE
8
BLACK
6
CONTINUOUS
10
172.559
20
12.335
11
173.097
21
12.2658
0
LINE
8
BLACK
6
CONTINUOUS
10
173.097
20
12.2658
11
173.638
21
12.2316
0
LINE
8
BLACK
6
CONTINUOUS
10
173.638
20
12.2316
11
174.18
21
12.2324
0
LINE
8
BLACK
6
CONTINUOUS
10
174.18
20
12.2324
11
174.721
21
12.2683
0
LINE
8
BLACK
6
CONTINUOUS
10
174.721
20
12.2683
11
175.258
21
12.3391
0
LINE
8
BLACK
6
CONTINUOUS
10
175.258
20
12.3391
11
175.734
21
12.4335
0
LINE
8
BLACK
6
CONTINUOUS
10
175.734
20
12.4335
11
175.762
21
12.4645
0
LINE
8
BLACK
6
CONTINUOUS
10
175.762
20
12.4645
11
175.776
21
12.4676
0
LINE
8
BLACK
6
CONTINUOUS
10
175.776
20
12.4676
11
176.496
21
12.9154
0
LINE
8
BLACK
6
CONTINUOUS
10
176.496
20
12.9154
11
177.207
21
13.4018
0
LINE
8
BLACK
6
CONTINUOUS
10
177.207
20
13.4018
11
177.896
21
13.9189
0
LINE
8
BLACK
6
CONTINUOUS
10
177.896
20
13.9189
11
178.561
21
14.4656
0
LINE
8
BLACK
6
CONTINUOUS
10
178.561
20
14.4656
11
179.203
21
15.0408
0
LINE
8
BLACK
6
CONTINUOUS
10
179.203
20
15.0408
11
179.818
21
15.6435
0
LINE
8
BLACK
6
CONTINUOUS
10
179.818
20
15.6435
11
180.407
21
16.2726
0
LINE
8
BLACK
6
CONTINUOUS
10
180.407
20
16.2726
11
180.967
21
16.9268
0
LINE
8
BLACK
6
CONTINUOUS
10
180.967
20
16.9268
11
181.498
21
17.6049
0
LINE
8
BLACK
6
CONTINUOUS
10
181.498
20
17.6049
11
181.999
21
18.3055
0
LINE
8
BLACK
6
CONTINUOUS
10
181.999
20
18.3055
11
182.47
21
19.0274
0
LINE
8
BLACK
6
CONTINUOUS
10
182.47
20
19.0274
11
182.908
21
19.7692
0
LINE
8
BLACK
6
CONTINUOUS
10
182.908
20
19.7692
11
183.313
21
20.5293
0
LINE
8
BLACK
6
CONTINUOUS
10
183.313
20
20.5293
11
183.684
21
21.3065
0
LINE
8
BLACK
6
CONTINUOUS
10
183.684
20
21.3065
11
184.022
21
22.0992
0
LINE
8
BLACK
6
CONTINUOUS
10
184.022
20
22.0992
11
184.324
21
22.9058
0
LINE
8
BLACK
6
CONTINUOUS
10
184.324
20
22.9058
11
184.591
21
23.7249
0
LINE
8
BLACK
6
CONTINUOUS
10
184.591
20
23.7249
11
184.821
21
24.5549
0
LINE
8
BLACK
6
CONTINUOUS
10
184.821
20
24.5549
11
185.015
21
25.3942
0
LINE
8
BLACK
6
CONTINUOUS
10
185.015
20
25.3942
11
185.173
21
26.2411
0
LINE
8
BLACK
6
CONTINUOUS
10
185.173
20
26.2411
11
185.293
21
27.0942
0
LINE
8
BLACK
6
CONTINUOUS
10
185.293
20
27.0942
11
185.375
21
27.9516
0
LINE
8
BLACK
6
CONTINUOUS
10
185.375
20
27.9516
11
185.421
21
28.8119
0
LINE
8
BLACK
6
CONTINUOUS
10
185.421
20
28.8119
11
185.428
21
29.6733
0
LINE
8
BLACK
6
CONTINUOUS
10
185.428
20
29.6733
11
185.398
21
30.5342
0
LINE
8
BLACK
6
CONTINUOUS
10
185.398
20
30.5342
11
185.332
21
31.3646
0
LINE
8
BLACK
6
CONTINUOUS
10
185.332
20
31.3646
11
184.709
21
31.5115
0
LINE
8
BLACK
6
CONTINUOUS
10
184.709
20
31.5115
11
184.038
21
31.7058
0
LINE
8
BLACK
6
CONTINUOUS
10
184.038
20
31.7058
11
183.377
21
31.9334
0
LINE
8
BLACK
6
CONTINUOUS
10
183.377
20
31.9334
11
182.728
21
32.1938
0
LINE
8
BLACK
6
CONTINUOUS
10
182.728
20
32.1938
11
182.093
21
32.4863
0
LINE
8
BLACK
6
CONTINUOUS
10
182.093
20
32.4863
11
181.473
21
32.8102
0
LINE
8
BLACK
6
CONTINUOUS
10
181.473
20
32.8102
11
180.871
21
33.1646
0
LINE
8
BLACK
6
CONTINUOUS
10
180.871
20
33.1646
11
180.287
21
33.5487
0
LINE
8
BLACK
6
CONTINUOUS
10
180.287
20
33.5487
11
179.722
21
33.9615
0
LINE
8
BLACK
6
CONTINUOUS
10
179.722
20
33.9615
11
179.18
21
34.402
0
LINE
8
BLACK
6
CONTINUOUS
10
179.18
20
34.402
11
178.659
21
34.8692
0
LINE
8
BLACK
6
CONTINUOUS
10
178.659
20
34.8692
11
178.163
21
35.3617
0
LINE
8
BLACK
6
CONTINUOUS
10
178.163
20
35.3617
11
177.692
21
35.8784
0
LINE
8
BLACK
6
CONTINUOUS
10
177.692
20
35.8784
11
177.248
21
36.418
0
LINE
8
BLACK
6
CONTINUOUS
10
177.248
20
36.418
11
176.831
21
36.9792
0
LINE
8
BLACK
6
CONTINUOUS
10
176.831
20
36.9792
11
176.443
21
37.5605
0
LINE
8
BLACK
6
CONTINUOUS
10
176.443
20
37.5605
11
176.084
21
38.1604
0
LINE
8
BLACK
6
CONTINUOUS
10
176.084
20
38.1604
11
175.78
21
38.731
0
LINE
8
BLACK
6
CONTINUOUS
10
175.78
20
38.731
11
175.765
21
38.7335
0
LINE
8
BLACK
6
CONTINUOUS
10
175.765
20
38.7335
11
175.733
21
38.7665
0
LINE
8
BLACK
6
CONTINUOUS
10
175.733
20
38.7665
11
175.733
21
38.7665
0
LINE
8
BLACK
6
CONTINUOUS
10
175.733
20
38.7665
11
175.232
21
39.8096
0
LINE
8
BLACK
6
CONTINUOUS
10
175.232
20
39.8096
11
174.762
21
40.867
0
LINE
8
BLACK
6
CONTINUOUS
10
174.762
20
40.867
11
174.325
21
41.9381
0
LINE
8
BLACK
6
CONTINUOUS
10
174.325
20
41.9381
11
173.919
21
43.0217
0
LINE
8
BLACK
6
CONTINUOUS
10
173.919
20
43.0217
11
173.546
21
44.1169
0
LINE
8
BLACK
6
CONTINUOUS
10
173.546
20
44.1169
11
173.205
21
45.2228
0
LINE
8
BLACK
6
CONTINUOUS
10
173.205
20
45.2228
11
172.898
21
46.3383
0
LINE
8
BLACK
6
CONTINUOUS
10
172.898
20
46.3383
11
172.624
21
47.4625
0
LINE
8
BLACK
6
CONTINUOUS
10
172.624
20
47.4625
11
172.384
21
48.5944
0
LINE
8
BLACK
6
CONTINUOUS
10
172.384
20
48.5944
11
172.178
21
49.7329
0
LINE
8
BLACK
6
CONTINUOUS
10
172.178
20
49.7329
11
172.006
21
50.877
0
LINE
8
BLACK
6
CONTINUOUS
10
172.006
20
50.877
11
171.868
21
52.0258
0
LINE
8
BLACK
6
CONTINUOUS
10
171.868
20
52.0258
11
171.764
21
53.1782
0
LINE
8
BLACK
6
CONTINUOUS
10
171.764
20
53.1782
11
171.695
21
54.3332
0
LINE
8
BLACK
6
CONTINUOUS
10
171.695
20
54.3332
11
171.66
21
55.4897
0
LINE
8
BLACK
6
CONTINUOUS
10
171.66
20
55.4897
11
171.66
21
56.6468
0
LINE
8
BLACK
6
CONTINUOUS
10
171.66
20
56.6468
11
171.694
21
57.8
0
LINE
8
BLACK
6
CONTINUOUS
10
171.694
20
57.8
11
171.694
21
57.8
0
LINE
8
BLACK
6
CONTINUOUS
10
171.694
20
57.8
11
171.694
21
92.8
0
LINE
8
BLACK
6
CONTINUOUS
10
171.694
20
92.8
11
171.698
21
92.8257
0
LINE
8
BLACK
6
CONTINUOUS
10
171.698
20
92.8257
11
171.719
21
92.8502
0
LINE
8
BLACK
6
CONTINUOUS
10
171.719
20
92.8502
11
171.723
21
94.3204
0
LINE
8
BLACK
6
CONTINUOUS
10
171.723
20
94.3204
11
171.761
21
95.8407
0
LINE
8
BLACK
6
CONTINUOUS
10
171.761
20
95.8407
11
171.832
21
97.3599
0
LINE
8
BLACK
6
CONTINUOUS
10
171.832
20
97.3599
11
171.936
21
98.8771
0
LINE
8
BLACK
6
CONTINUOUS
10
171.936
20
98.8771
11
172.073
21
100.392
0
LINE
8
BLACK
6
CONTINUOUS
10
172.073
20
100.392
11
172.243
21
101.903
0
LINE
8
BLACK
6
CONTINUOUS
10
172.243
20
101.903
11
172.446
21
103.41
0
LINE
8
BLACK
6
CONTINUOUS
10
172.446
20
103.41
11
172.682
21
104.913
0
LINE
8
BLACK
6
CONTINUOUS
10
172.682
20
104.913
11
172.951
21
106.409
0
LINE
8
BLACK
6
CONTINUOUS
10
172.951
20
106.409
11
172.951
21
106.409
0
LINE
8
BLACK
6
CONTINUOUS
10
172.951
20
106.409
11
172.951
21
106.409
0
LINE
8
BLACK
6
CONTINUOUS
10
172.951
20
106.409
11
172.951
21
106.409
0
LINE
8
BLACK
6
CONTINUOUS
10
172.951
20
106.409
11
172.951
21
106.409
0
LINE
8
BLACK
6
CONTINUOUS
10
172.951
20
106.409
11
172.951
21
106.409
0
LINE
8
BLACK
6
CONTINUOUS
10
172.951
20
106.409
11
173.063
21
106.932
0
LINE
8
BLACK
6
CONTINUOUS
10
173.063
20
106.932
11
173.209
21
107.447
0
LINE
8
BLACK
6
CONTINUOUS
10
173.209
20
107.447
11
173.39
21
107.951
0
LINE
8
BLACK
6
CONTINUOUS
10
173.39
20
107.951
11
173.604
21
108.441
0
LINE
8
BLACK
6
CONTINUOUS
10
173.604
20
108.441
11
173.851
21
108.916
0
LINE
8
BLACK
6
CONTINUOUS
10
173.851
20
108.916
11
174.129
21
109.374
0
LINE
8
BLACK
6
CONTINUOUS
10
174.129
20
109.374
11
174.436
21
109.811
0
LINE
8
BLACK
6
CONTINUOUS
10
174.436
20
109.811
11
174.773
21
110.228
0
LINE
8
BLACK
6
CONTINUOUS
10
174.773
20
110.228
11
175.136
21
110.621
0
LINE
8
BLACK
6
CONTINUOUS
10
175.136
20
110.621
11
175.525
21
110.988
0
LINE
8
BLACK
6
CONTINUOUS
10
175.525
20
110.988
11
175.938
21
111.329
0
LINE
8
BLACK
6
CONTINUOUS
10
175.938
20
111.329
11
176.328
21
111.61
0
LINE
8
BLACK
6
CONTINUOUS
10
176.328
20
111.61
11
176.329
21
111.612
0
LINE
8
BLACK
6
CONTINUOUS
10
176.329
20
111.612
11
176.302
21
112.261
0
LINE
8
BLACK
6
CONTINUOUS
10
176.302
20
112.261
11
176.238
21
112.921
0
LINE
8
BLACK
6
CONTINUOUS
10
176.238
20
112.921
11
176.139
21
113.576
0
LINE
8
BLACK
6
CONTINUOUS
10
176.139
20
113.576
11
176.004
21
114.225
0
LINE
8
BLACK
6
CONTINUOUS
10
176.004
20
114.225
11
175.833
21
114.865
0
LINE
8
BLACK
6
CONTINUOUS
10
175.833
20
114.865
11
175.628
21
115.495
0
LINE
8
BLACK
6
CONTINUOUS
10
175.628
20
115.495
11
175.389
21
116.113
0
LINE
8
BLACK
6
CONTINUOUS
10
175.389
20
116.113
11
175.117
21
116.717
0
LINE
8
BLACK
6
CONTINUOUS
10
175.117
20
116.717
11
174.812
21
117.306
0
LINE
8
BLACK
6
CONTINUOUS
10
174.812
20
117.306
11
174.475
21
117.877
0
LINE
8
BLACK
6
CONTINUOUS
10
174.475
20
117.877
11
174.108
21
118.428
0
LINE
8
BLACK
6
CONTINUOUS
10
174.108
20
118.428
11
173.711
21
118.959
0
LINE
8
BLACK
6
CONTINUOUS
10
173.711
20
118.959
11
173.286
21
119.467
0
LINE
8
BLACK
6
CONTINUOUS
10
173.286
20
119.467
11
172.834
21
119.952
0
LINE
8
BLACK
6
CONTINUOUS
10
172.834
20
119.952
11
172.356
21
120.411
0
LINE
8
BLACK
6
CONTINUOUS
10
172.356
20
120.411
11
171.854
21
120.843
0
LINE
8
BLACK
6
CONTINUOUS
10
171.854
20
120.843
11
171.329
21
121.248
0
LINE
8
BLACK
6
CONTINUOUS
10
171.329
20
121.248
11
170.783
21
121.623
0
LINE
8
BLACK
6
CONTINUOUS
10
170.783
20
121.623
11
170.217
21
121.967
0
LINE
8
BLACK
6
CONTINUOUS
10
170.217
20
121.967
11
169.633
21
122.281
0
LINE
8
BLACK
6
CONTINUOUS
10
169.633
20
122.281
11
169.033
21
122.562
0
LINE
8
BLACK
6
CONTINUOUS
10
169.033
20
122.562
11
168.418
21
122.81
0
LINE
8
BLACK
6
CONTINUOUS
10
168.418
20
122.81
11
167.791
21
123.024
0
LINE
8
BLACK
6
CONTINUOUS
10
167.791
20
123.024
11
167.153
21
123.203
0
LINE
8
BLACK
6
CONTINUOUS
10
167.153
20
123.203
11
166.506
21
123.348
0
LINE
8
BLACK
6
CONTINUOUS
10
166.506
20
123.348
11
165.853
21
123.457
0
LINE
8
BLACK
6
CONTINUOUS
10
165.853
20
123.457
11
165.209
21
123.528
0
LINE
8
BLACK
6
CONTINUOUS
10
165.209
20
123.528
11
165.2
21
123.525
0
LINE
8
BLACK
6
CONTINUOUS
10
165.2
20
123.525
11
141.8
21
123.525
0
LINE
8
BLACK
6
CONTINUOUS
10
141.8
20
123.525
11
141.774
21
123.53
0
LINE
8
BLACK
6
CONTINUOUS
10
141.774
20
123.53
11
141.749
21
123.551
0
LINE
8
BLACK
6
CONTINUOUS
10
141.749
20
123.551
11
140.114
21
123.572
0
LINE
8
BLACK
6
CONTINUOUS
10
140.114
20
123.572
11
138.43
21
123.628
0
LINE
8
BLACK
6
CONTINUOUS
10
138.43
20
123.628
11
136.746
21
123.718
0
LINE
8
BLACK
6
CONTINUOUS
10
136.746
20
123.718
11
135.065
21
123.843
0
LINE
8
BLACK
6
CONTINUOUS
10
135.065
20
123.843
11
133.387
21
124.002
0
LINE
8
BLACK
6
CONTINUOUS
10
133.387
20
124.002
11
131.712
21
124.195
0
LINE
8
BLACK
6
CONTINUOUS
10
131.712
20
124.195
11
130.042
21
124.422
0
LINE
8
BLACK
6
CONTINUOUS
10
130.042
20
124.422
11
128.377
21
124.683
0
LINE
8
BLACK
6
CONTINUOUS
10
128.377
20
124.683
11
126.717
21
124.978
0
LINE
8
BLACK
6
CONTINUOUS
10
126.717
20
124.978
11
125.064
21
125.306
0
LINE
8
BLACK
6
CONTINUOUS
10
125.064
20
125.306
11
123.417
21
125.668
0
LINE
8
BLACK
6
CONTINUOUS
10
123.417
20
125.668
11
121.779
21
126.064
0
LINE
8
BLACK
6
CONTINUOUS
10
121.779
20
126.064
11
120.149
21
126.493
0
LINE
8
BLACK
6
CONTINUOUS
10
120.149
20
126.493
11
118.527
21
126.955
0
LINE
8
BLACK
6
CONTINUOUS
10
118.527
20
126.955
11
116.916
21
127.45
0
LINE
8
BLACK
6
CONTINUOUS
10
116.916
20
127.45
11
115.315
21
127.977
0
LINE
8
BLACK
6
CONTINUOUS
10
115.315
20
127.977
11
113.725
21
128.537
0
LINE
8
BLACK
6
CONTINUOUS
10
113.725
20
128.537
11
112.147
21
129.129
0
LINE
8
BLACK
6
CONTINUOUS
10
112.147
20
129.129
11
110.631
21
129.734
0
LINE
8
BLACK
6
CONTINUOUS
10
110.631
20
129.734
11
110.624
21
129.729
0
LINE
8
BLACK
6
CONTINUOUS
10
110.624
20
129.729
11
110.578
21
129.728
0
LINE
8
BLACK
6
CONTINUOUS
10
110.578
20
129.728
11
110.566
21
129.737
0
LINE
8
BLACK
6
CONTINUOUS
10
110.566
20
129.737
11
109.158
21
130.148
0
LINE
8
BLACK
6
CONTINUOUS
10
109.158
20
130.148
11
107.726
21
130.528
0
LINE
8
BLACK
6
CONTINUOUS
10
107.726
20
130.528
11
106.285
21
130.871
0
LINE
8
BLACK
6
CONTINUOUS
10
106.285
20
130.871
11
104.836
21
131.178
0
LINE
8
BLACK
6
CONTINUOUS
10
104.836
20
131.178
11
103.38
21
131.448
0
LINE
8
BLACK
6
CONTINUOUS
10
103.38
20
131.448
11
101.917
21
131.68
0
LINE
8
BLACK
6
CONTINUOUS
10
101.917
20
131.68
11
100.449
21
131.876
0
LINE
8
BLACK
6
CONTINUOUS
10
100.449
20
131.876
11
98.9762
21
132.035
0
LINE
8
BLACK
6
CONTINUOUS
10
98.9762
20
132.035
11
97.5
21
132.156
0
LINE
8
BLACK
6
CONTINUOUS
10
97.5
20
132.156
11
96.0212
21
132.24
0
LINE
8
BLACK
6
CONTINUOUS
10
96.0212
20
132.24
11
94.5407
21
132.286
0
LINE
8
BLACK
6
CONTINUOUS
10
94.5407
20
132.286
11
93.0596
21
132.295
0
LINE
8
BLACK
6
CONTINUOUS
10
93.0596
20
132.295
11
91.5787
21
132.266
0
LINE
8
BLACK
6
CONTINUOUS
10
91.5787
20
132.266
11
90.099
21
132.2
0
LINE
8
BLACK
6
CONTINUOUS
10
90.099
20
132.2
11
88.6215
21
132.097
0
LINE
8
BLACK
6
CONTINUOUS
10
88.6215
20
132.097
11
87.147
21
131.956
0
LINE
8
BLACK
6
CONTINUOUS
10
87.147
20
131.956
11
85.6766
21
131.777
0
LINE
8
BLACK
6
CONTINUOUS
10
85.6766
20
131.777
11
84.2112
21
131.562
0
LINE
8
BLACK
6
CONTINUOUS
10
84.2112
20
131.562
11
82.7517
21
131.31
0
LINE
8
BLACK
6
CONTINUOUS
10
82.7517
20
131.31
11
81.2991
21
131.02
0
LINE
8
BLACK
6
CONTINUOUS
10
81.2991
20
131.02
11
79.8542
21
130.694
0
LINE
8
BLACK
6
CONTINUOUS
10
79.8542
20
130.694
11
78.4315
21
130.335
0
LINE
8
BLACK
6
CONTINUOUS
10
78.4315
20
130.335
11
78.4193
21
130.328
0
LINE
8
BLACK
6
CONTINUOUS
10
78.4193
20
130.328
11
78.373
21
130.33
0
LINE
8
BLACK
6
CONTINUOUS
10
78.373
20
130.33
11
78.3592
21
130.341
0
LINE
8
BLACK
6
CONTINUOUS
10
78.3592
20
130.341
11
76.7909
21
129.895
0
LINE
8
BLACK
6
CONTINUOUS
10
76.7909
20
129.895
11
75.1803
21
129.399
0
LINE
8
BLACK
6
CONTINUOUS
10
75.1803
20
129.399
11
73.581
21
128.867
0
LINE
8
BLACK
6
CONTINUOUS
10
73.581
20
128.867
11
71.9936
21
128.301
0
LINE
8
BLACK
6
CONTINUOUS
10
71.9936
20
128.301
11
70.4191
21
127.7
0
LINE
8
BLACK
6
CONTINUOUS
10
70.4191
20
127.7
11
68.8581
21
127.064
0
LINE
8
BLACK
6
CONTINUOUS
10
68.8581
20
127.064
11
67.3114
21
126.395
0
LINE
8
BLACK
6
CONTINUOUS
10
67.3114
20
126.395
11
65.7796
21
125.692
0
LINE
8
BLACK
6
CONTINUOUS
10
65.7796
20
125.692
11
64.2637
21
124.955
0
LINE
8
BLACK
6
CONTINUOUS
10
64.2637
20
124.955
11
62.7642
21
124.186
0
LINE
8
BLACK
6
CONTINUOUS
10
62.7642
20
124.186
11
61.2819
21
123.384
0
LINE
8
BLACK
6
CONTINUOUS
10
61.2819
20
123.384
11
59.8175
21
122.55
0
LINE
8
BLACK
6
CONTINUOUS
10
59.8175
20
122.55
11
58.3718
21
121.683
0
LINE
8
BLACK
6
CONTINUOUS
10
58.3718
20
121.683
11
56.9453
21
120.786
0
LINE
8
BLACK
6
CONTINUOUS
10
56.9453
20
120.786
11
55.5388
21
119.857
0
LINE
8
BLACK
6
CONTINUOUS
10
55.5388
20
119.857
11
54.153
21
118.898
0
LINE
8
BLACK
6
CONTINUOUS
10
54.153
20
118.898
11
52.7885
21
117.909
0
LINE
8
BLACK
6
CONTINUOUS
10
52.7885
20
117.909
11
51.4459
21
116.89
0
LINE
8
BLACK
6
CONTINUOUS
10
51.4459
20
116.89
11
50.126
21
115.842
0
LINE
8
BLACK
6
CONTINUOUS
10
50.126
20
115.842
11
48.8379
21
114.772
0
LINE
8
BLACK
6
CONTINUOUS
10
48.8379
20
114.772
11
48.8328
21
114.762
0
LINE
8
BLACK
6
CONTINUOUS
10
48.8328
20
114.762
11
48.8325
21
114.762
0
LINE
8
BLACK
6
CONTINUOUS
10
48.8325
20
114.762
11
48.8324
21
114.762
0
LINE
8
BLACK
6
CONTINUOUS
10
48.8324
20
114.762
11
48.8232
21
114.759
0
LINE
8
BLACK
6
CONTINUOUS
10
48.8232
20
114.759
11
48.0779
21
114.089
0
LINE
8
BLACK
6
CONTINUOUS
10
48.0779
20
114.089
11
47.347
21
113.39
0
LINE
8
BLACK
6
CONTINUOUS
10
47.347
20
113.39
11
46.6381
21
112.668
0
LINE
8
BLACK
6
CONTINUOUS
10
46.6381
20
112.668
11
45.952
21
111.925
0
LINE
8
BLACK
6
CONTINUOUS
10
45.952
20
111.925
11
45.2894
21
111.161
0
LINE
8
BLACK
6
CONTINUOUS
10
45.2894
20
111.161
11
44.6509
21
110.376
0
LINE
8
BLACK
6
CONTINUOUS
10
44.6509
20
110.376
11
44.037
21
109.572
0
LINE
8
BLACK
6
CONTINUOUS
10
44.037
20
109.572
11
43.4485
21
108.75
0
LINE
8
BLACK
6
CONTINUOUS
10
43.4485
20
108.75
11
42.8858
21
107.909
0
LINE
8
BLACK
6
CONTINUOUS
10
42.8858
20
107.909
11
42.3495
21
107.051
0
LINE
8
BLACK
6
CONTINUOUS
10
42.3495
20
107.051
11
41.8675
21
106.224
0
LINE
8
BLACK
6
CONTINUOUS
10
41.8675
20
106.224
11
41.8742
21
106.211
0
LINE
8
BLACK
6
CONTINUOUS
10
41.8742
20
106.211
11
41.8664
21
106.165
0
LINE
8
BLACK
6
CONTINUOUS
10
41.8664
20
106.165
11
41.8576
21
106.156
0
LINE
8
BLACK
6
CONTINUOUS
10
41.8576
20
106.156
11
41.4493
21
105.347
0
LINE
8
BLACK
6
CONTINUOUS
10
41.4493
20
105.347
11
41.0648
21
104.513
0
LINE
8
BLACK
6
CONTINUOUS
10
41.0648
20
104.513
11
40.7096
21
103.666
0
LINE
8
BLACK
6
CONTINUOUS
10
40.7096
20
103.666
11
40.3842
21
102.807
0
LINE
8
BLACK
6
CONTINUOUS
10
40.3842
20
102.807
11
40.089
21
101.937
0
LINE
8
BLACK
6
CONTINUOUS
10
40.089
20
101.937
11
39.8245
21
101.058
0
LINE
8
BLACK
6
CONTINUOUS
10
39.8245
20
101.058
11
39.5908
21
100.17
0
LINE
8
BLACK
6
CONTINUOUS
10
39.5908
20
100.17
11
39.3883
21
99.2737
0
LINE
8
BLACK
6
CONTINUOUS
10
39.3883
20
99.2737
11
39.2173
21
98.3713
0
LINE
8
BLACK
6
CONTINUOUS
10
39.2173
20
98.3713
11
39.0779
21
97.4635
0
LINE
8
BLACK
6
CONTINUOUS
10
39.0779
20
97.4635
11
38.9704
21
96.5514
0
LINE
8
BLACK
6
CONTINUOUS
10
38.9704
20
96.5514
11
38.8947
21
95.6361
0
LINE
8
BLACK
6
CONTINUOUS
10
38.8947
20
95.6361
11
38.8512
21
94.7187
0
LINE
8
BLACK
6
CONTINUOUS
10
38.8512
20
94.7187
11
38.8398
21
93.812
0
LINE
8
BLACK
6
CONTINUOUS
10
38.8398
20
93.812
11
38.8437
21
93.8004
0
LINE
8
BLACK
6
CONTINUOUS
10
38.8437
20
93.8004
11
38.8436
21
93.8002
0
LINE
8
BLACK
6
CONTINUOUS
10
38.8436
20
93.8002
11
38.8437
21
93.8
0
LINE
8
BLACK
6
CONTINUOUS
10
38.8437
20
93.8
11
38.8437
21
52.8
0
LINE
8
BLACK
6
CONTINUOUS
10
38.8437
20
52.8
11
38.8434
21
52.7985
0
LINE
8
BLACK
6
CONTINUOUS
10
170.006
20
36.995
11
179.905
21
27.0955
0
LINE
8
BLACK
6
CONTINUOUS
10
179.905
20
27.0955
11
179.923
21
27.053
0
LINE
8
BLACK
6
CONTINUOUS
10
179.923
20
27.053
11
179.905
21
27.0106
0
LINE
8
BLACK
6
CONTINUOUS
10
179.905
20
27.0106
11
170.006
21
17.1111
0
LINE
8
BLACK
6
CONTINUOUS
10
170.006
20
17.1111
11
169.963
21
17.0936
0
LINE
8
BLACK
6
CONTINUOUS
10
169.963
20
17.0936
11
169.921
21
17.1111
0
LINE
8
BLACK
6
CONTINUOUS
10
169.921
20
17.1111
11
160.021
21
27.0106
0
LINE
8
BLACK
6
CONTINUOUS
10
160.021
20
27.0106
11
160.004
21
27.053
0
LINE
8
BLACK
6
CONTINUOUS
10
160.004
20
27.053
11
160.021
21
27.0955
0
LINE
8
BLACK
6
CONTINUOUS
10
160.021
20
27.0955
11
169.921
21
36.995
0
LINE
8
BLACK
6
CONTINUOUS
10
169.921
20
36.995
11
169.963
21
37.0125
0
LINE
8
BLACK
6
CONTINUOUS
10
169.963
20
37.0125
11
170.006
21
36.995
0
LINE
8
BLACK
6
CONTINUOUS
10
160.149
20
27.053
11
169.963
21
17.2384
0
LINE
8
BLACK
6
CONTINUOUS
10
169.963
20
17.2384
11
179.778
21
27.053
0
LINE
8
BLACK
6
CONTINUOUS
10
179.778
20
27.053
11
169.963
21
36.8677
0
LINE
8
BLACK
6
CONTINUOUS
10
169.963
20
36.8677
11
160.149
21
27.053
0
LINE
8
BLACK
6
CONTINUOUS
10
150.519
20
49.6444
11
162.643
21
42.6444
0
LINE
8
BLACK
6
CONTINUOUS
10
162.643
20
42.6444
11
162.66
21
42.6225
0
LINE
8
BLACK
6
CONTINUOUS
10
162.66
20
42.6225
11
162.671
21
42.608
0
LINE
8
BLACK
6
CONTINUOUS
10
162.671
20
42.608
11
162.665
21
42.5625
0
LINE
8
BLACK
6
CONTINUOUS
10
162.665
20
42.5625
11
155.665
21
30.4381
0
LINE
8
BLACK
6
CONTINUOUS
10
155.665
20
30.4381
11
155.629
21
30.4102
0
LINE
8
BLACK
6
CONTINUOUS
10
155.629
20
30.4102
11
155.583
21
30.4161
0
LINE
8
BLACK
6
CONTINUOUS
10
155.583
20
30.4161
11
155.583
21
30.4161
0
LINE
8
BLACK
6
CONTINUOUS
10
155.583
20
30.4161
11
143.459
21
37.4161
0
LINE
8
BLACK
6
CONTINUOUS
10
143.459
20
37.4161
11
143.431
21
37.4526
0
LINE
8
BLACK
6
CONTINUOUS
10
143.431
20
37.4526
11
143.437
21
37.4981
0
LINE
8
BLACK
6
CONTINUOUS
10
143.437
20
37.4981
11
150.437
21
49.6225
0
LINE
8
BLACK
6
CONTINUOUS
10
150.437
20
49.6225
11
150.473
21
49.6504
0
LINE
8
BLACK
6
CONTINUOUS
10
150.473
20
49.6504
11
150.519
21
49.6444
0
LINE
8
BLACK
6
CONTINUOUS
10
143.571
20
37.4901
11
155.591
21
30.5501
0
LINE
8
BLACK
6
CONTINUOUS
10
155.591
20
30.5501
11
162.531
21
42.5705
0
LINE
8
BLACK
6
CONTINUOUS
10
162.531
20
42.5705
11
150.511
21
49.5105
0
LINE
8
BLACK
6
CONTINUOUS
10
150.511
20
49.5105
11
143.571
21
37.4901
0
LINE
8
BLACK
6
CONTINUOUS
10
124.731
20
43.2084
11
124.725
21
43.2539
0
LINE
8
BLACK
6
CONTINUOUS
10
124.725
20
43.2539
11
128.349
21
56.7769
0
LINE
8
BLACK
6
CONTINUOUS
10
128.349
20
56.7769
11
128.349
21
56.7769
0
LINE
8
BLACK
6
CONTINUOUS
10
128.349
20
56.7769
11
128.377
21
56.8133
0
LINE
8
BLACK
6
CONTINUOUS
10
128.377
20
56.8133
11
128.422
21
56.8193
0
LINE
8
BLACK
6
CONTINUOUS
10
128.422
20
56.8193
11
141.945
21
53.1958
0
LINE
8
BLACK
6
CONTINUOUS
10
141.945
20
53.1958
11
141.945
21
53.1958
0
LINE
8
BLACK
6
CONTINUOUS
10
141.945
20
53.1958
11
141.982
21
53.1679
0
LINE
8
BLACK
6
CONTINUOUS
10
141.982
20
53.1679
11
141.988
21
53.1223
0
LINE
8
BLACK
6
CONTINUOUS
10
141.988
20
53.1223
11
138.364
21
39.5994
0
LINE
8
BLACK
6
CONTINUOUS
10
138.364
20
39.5994
11
138.336
21
39.5629
0
LINE
8
BLACK
6
CONTINUOUS
10
138.336
20
39.5629
11
138.291
21
39.557
0
LINE
8
BLACK
6
CONTINUOUS
10
138.291
20
39.557
11
124.768
21
43.1804
0
LINE
8
BLACK
6
CONTINUOUS
10
124.768
20
43.1804
11
124.731
21
43.2084
0
LINE
8
BLACK
6
CONTINUOUS
10
124.857
20
43.2808
11
138.264
21
39.6884
0
LINE
8
BLACK
6
CONTINUOUS
10
138.264
20
39.6884
11
141.856
21
53.0954
0
LINE
8
BLACK
6
CONTINUOUS
10
141.856
20
53.0954
11
128.449
21
56.6878
0
LINE
8
BLACK
6
CONTINUOUS
10
128.449
20
56.6878
11
124.857
21
43.2808
0
LINE
8
BLACK
6
CONTINUOUS
10
67.1206
20
57.9635
11
67.1498
21
57.9281
0
LINE
8
BLACK
6
CONTINUOUS
10
67.1498
20
57.9281
11
71.2431
21
44.5398
0
LINE
8
BLACK
6
CONTINUOUS
10
71.2431
20
44.5398
11
71.2386
21
44.4941
0
LINE
8
BLACK
6
CONTINUOUS
10
71.2386
20
44.4941
11
71.2032
21
44.4649
0
LINE
8
BLACK
6
CONTINUOUS
10
71.2032
20
44.4649
11
57.8149
21
40.3717
0
LINE
8
BLACK
6
CONTINUOUS
10
57.8149
20
40.3717
11
57.7692
21
40.3761
0
LINE
8
BLACK
6
CONTINUOUS
10
57.7692
20
40.3761
11
57.74
21
40.4115
0
LINE
8
BLACK
6
CONTINUOUS
10
57.74
20
40.4115
11
53.6468
21
53.7998
0
LINE
8
BLACK
6
CONTINUOUS
10
53.6468
20
53.7998
11
53.6512
21
53.8455
0
LINE
8
BLACK
6
CONTINUOUS
10
53.6512
20
53.8455
11
53.6867
21
53.8747
0
LINE
8
BLACK
6
CONTINUOUS
10
53.6867
20
53.8747
11
67.0749
21
57.9679
0
LINE
8
BLACK
6
CONTINUOUS
10
67.0749
20
57.9679
11
67.0749
21
57.9679
0
LINE
8
BLACK
6
CONTINUOUS
10
67.0749
20
57.9679
11
67.1206
21
57.9635
0
LINE
8
BLACK
6
CONTINUOUS
10
53.7791
20
53.7775
11
57.8372
21
40.504
0
LINE
8
BLACK
6
CONTINUOUS
10
57.8372
20
40.504
11
71.1108
21
44.5621
0
LINE
8
BLACK
6
CONTINUOUS
10
71.1108
20
44.5621
11
67.0526
21
57.8356
0
LINE
8
BLACK
6
CONTINUOUS
10
67.0526
20
57.8356
11
53.7791
21
53.7775
0
LINE
8
BLACK
6
CONTINUOUS
10
61.5656
20
76.1333
11
61.5948
21
76.0979
0
LINE
8
BLACK
6
CONTINUOUS
10
61.5948
20
76.0979
11
65.688
21
62.7096
0
LINE
8
BLACK
6
CONTINUOUS
10
65.688
20
62.7096
11
65.6836
21
62.6639
0
LINE
8
BLACK
6
CONTINUOUS
10
65.6836
20
62.6639
11
65.6482
21
62.6347
0
LINE
8
BLACK
6
CONTINUOUS
10
65.6482
20
62.6347
11
52.2599
21
58.5415
0
LINE
8
BLACK
6
CONTINUOUS
10
52.2599
20
58.5415
11
52.2142
21
58.5459
0
LINE
8
BLACK
6
CONTINUOUS
10
52.2142
20
58.5459
11
52.185
21
58.5813
0
LINE
8
BLACK
6
CONTINUOUS
10
52.185
20
58.5813
11
48.0918
21
71.9696
0
LINE
8
BLACK
6
CONTINUOUS
10
48.0918
20
71.9696
11
48.0962
21
72.0153
0
LINE
8
BLACK
6
CONTINUOUS
10
48.0962
20
72.0153
11
48.1316
21
72.0445
0
LINE
8
BLACK
6
CONTINUOUS
10
48.1316
20
72.0445
11
61.5199
21
76.1377
0
LINE
8
BLACK
6
CONTINUOUS
10
61.5199
20
76.1377
11
61.5199
21
76.1377
0
LINE
8
BLACK
6
CONTINUOUS
10
61.5199
20
76.1377
11
61.5656
21
76.1333
0
LINE
8
BLACK
6
CONTINUOUS
10
48.2241
20
71.9473
11
52.2822
21
58.6738
0
LINE
8
BLACK
6
CONTINUOUS
10
52.2822
20
58.6738
11
65.5557
21
62.7319
0
LINE
8
BLACK
6
CONTINUOUS
10
65.5557
20
62.7319
11
61.4976
21
76.0054
0
LINE
8
BLACK
6
CONTINUOUS
10
61.4976
20
76.0054
11
48.2241
21
71.9473
0
LINE
8
BLACK
6
CONTINUOUS
10
82.0716
20
81.3022
11
82.0963
21
81.2634
0
LINE
8
BLACK
6
CONTINUOUS
10
82.0963
20
81.2634
11
82.0963
21
81.2634
0
LINE
8
BLACK
6
CONTINUOUS
10
82.0963
20
81.2634
11
84.5274
21
67.4761
0
LINE
8
BLACK
6
CONTINUOUS
10
84.5274
20
67.4761
11
84.5174
21
67.4313
0
LINE
8
BLACK
6
CONTINUOUS
10
84.5174
20
67.4313
11
84.4787
21
67.4066
0
LINE
8
BLACK
6
CONTINUOUS
10
84.4787
20
67.4066
11
84.4787
21
67.4066
0
LINE
8
BLACK
6
CONTINUOUS
10
84.4787
20
67.4066
11
70.6914
21
64.9755
0
LINE
8
BLACK
6
CONTINUOUS
10
70.6914
20
64.9755
11
70.6914
21
64.9755
0
LINE
8
BLACK
6
CONTINUOUS
10
70.6914
20
64.9755
11
70.6466
21
64.9855
0
LINE
8
BLACK
6
CONTINUOUS
10
70.6466
20
64.9855
11
70.6219
21
65.0242
0
LINE
8
BLACK
6
CONTINUOUS
10
70.6219
20
65.0242
11
68.1908
21
78.8115
0
LINE
8
BLACK
6
CONTINUOUS
10
68.1908
20
78.8115
11
68.2008
21
78.8564
0
LINE
8
BLACK
6
CONTINUOUS
10
68.2008
20
78.8564
11
68.2395
21
78.881
0
LINE
8
BLACK
6
CONTINUOUS
10
68.2395
20
78.881
11
82.0268
21
81.3121
0
LINE
8
BLACK
6
CONTINUOUS
10
82.0268
20
81.3121
11
82.0716
21
81.3022
0
LINE
8
BLACK
6
CONTINUOUS
10
68.3194
20
78.7733
11
70.7297
21
65.1041
0
LINE
8
BLACK
6
CONTINUOUS
10
70.7297
20
65.1041
11
84.3988
21
67.5144
0
LINE
8
BLACK
6
CONTINUOUS
10
84.3988
20
67.5144
11
81.9886
21
81.1835
0
LINE
8
BLACK
6
CONTINUOUS
10
81.9886
20
81.1835
11
68.3194
21
78.7733
0
LINE
8
BLACK
6
CONTINUOUS
10
126.726
20
67.8457
11
126.709
21
67.8882
0
LINE
8
BLACK
6
CONTINUOUS
10
126.709
20
67.8882
11
126.709
21
81.8882
0
LINE
8
BLACK
6
CONTINUOUS
10
126.709
20
81.8882
11
126.726
21
81.9306
0
LINE
8
BLACK
6
CONTINUOUS
10
126.726
20
81.9306
11
126.769
21
81.9482
0
LINE
8
BLACK
6
CONTINUOUS
10
126.769
20
81.9482
11
140.769
21
81.9482
0
LINE
8
BLACK
6
CONTINUOUS
10
140.769
20
81.9482
11
140.811
21
81.9306
0
LINE
8
BLACK
6
CONTINUOUS
10
140.811
20
81.9306
11
140.829
21
81.8882
0
LINE
8
BLACK
6
CONTINUOUS
10
140.829
20
81.8882
11
140.829
21
67.8882
0
LINE
8
BLACK
6
CONTINUOUS
10
140.829
20
67.8882
11
140.811
21
67.8457
0
LINE
8
BLACK
6
CONTINUOUS
10
140.811
20
67.8457
11
140.769
21
67.8282
0
LINE
8
BLACK
6
CONTINUOUS
10
140.769
20
67.8282
11
126.769
21
67.8282
0
LINE
8
BLACK
6
CONTINUOUS
10
126.769
20
67.8282
11
126.726
21
67.8457
0
LINE
8
BLACK
6
CONTINUOUS
10
126.829
20
81.8282
11
126.829
21
67.9482
0
LINE
8
BLACK
6
CONTINUOUS
10
126.829
20
67.9482
11
140.709
21
67.9482
0
LINE
8
BLACK
6
CONTINUOUS
10
140.709
20
67.9482
11
140.709
21
81.8282
0
LINE
8
BLACK
6
CONTINUOUS
10
140.709
20
81.8282
11
126.829
21
81.8282
0
LINE
8
BLACK
6
CONTINUOUS
10
107.726
20
71.0124
11
107.709
21
71.0548
0
LINE
8
BLACK
6
CONTINUOUS
10
107.709
20
71.0548
11
107.709
21
85.0548
0
LINE
8
BLACK
6
CONTINUOUS
10
107.709
20
85.0548
11
107.726
21
85.0973
0
LINE
8
BLACK
6
CONTINUOUS
10
107.726
20
85.0973
11
107.769
21
85.1148
0
LINE
8
BLACK
6
CONTINUOUS
10
107.769
20
85.1148
11
121.769
21
85.1148
0
LINE
8
BLACK
6
CONTINUOUS
10
121.769
20
85.1148
11
121.811
21
85.0973
0
LINE
8
BLACK
6
CONTINUOUS
10
121.811
20
85.0973
11
121.829
21
85.0548
0
LINE
8
BLACK
6
CONTINUOUS
10
121.829
20
85.0548
11
121.829
21
71.0548
0
LINE
8
BLACK
6
CONTINUOUS
10
121.829
20
71.0548
11
121.811
21
71.0124
0
LINE
8
BLACK
6
CONTINUOUS
10
121.811
20
71.0124
11
121.769
21
70.9948
0
LINE
8
BLACK
6
CONTINUOUS
10
121.769
20
70.9948
11
107.769
21
70.9948
0
LINE
8
BLACK
6
CONTINUOUS
10
107.769
20
70.9948
11
107.726
21
71.0124
0
LINE
8
BLACK
6
CONTINUOUS
10
107.829
20
84.9948
11
107.829
21
71.1148
0
LINE
8
BLACK
6
CONTINUOUS
10
107.829
20
71.1148
11
121.709
21
71.1148
0
LINE
8
BLACK
6
CONTINUOUS
10
121.709
20
71.1148
11
121.709
21
84.9948
0
LINE
8
BLACK
6
CONTINUOUS
10
121.709
20
84.9948
11
107.829
21
84.9948
0
LINE
8
BLACK
6
CONTINUOUS
10
101.23
20
90.3698
11
101.252
21
90.3291
0
LINE
8
BLACK
6
CONTINUOUS
10
101.252
20
90.3291
11
102.472
21
76.3824
0
LINE
8
BLACK
6
CONTINUOUS
10
102.472
20
76.3824
11
102.468
21
76.3719
0
LINE
8
BLACK
6
CONTINUOUS
10
102.468
20
76.3719
11
102.458
21
76.3386
0
LINE
8
BLACK
6
CONTINUOUS
10
102.458
20
76.3386
11
102.417
21
76.3173
0
LINE
8
BLACK
6
CONTINUOUS
10
102.417
20
76.3173
11
88.4704
21
75.0972
0
LINE
8
BLACK
6
CONTINUOUS
10
88.4704
20
75.0972
11
88.4266
21
75.111
0
LINE
8
BLACK
6
CONTINUOUS
10
88.4266
20
75.111
11
88.4054
21
75.1517
0
LINE
8
BLACK
6
CONTINUOUS
10
88.4054
20
75.1517
11
87.1852
21
89.0984
0
LINE
8
BLACK
6
CONTINUOUS
10
87.1852
20
89.0984
11
87.1991
21
89.1422
0
LINE
8
BLACK
6
CONTINUOUS
10
87.1991
20
89.1422
11
87.2398
21
89.1634
0
LINE
8
BLACK
6
CONTINUOUS
10
87.2398
20
89.1634
11
101.187
21
90.3836
0
LINE
8
BLACK
6
CONTINUOUS
10
101.187
20
90.3836
11
101.187
21
90.3836
0
LINE
8
BLACK
6
CONTINUOUS
10
101.187
20
90.3836
11
101.23
21
90.3698
0
LINE
8
BLACK
6
CONTINUOUS
10
87.31
20
89.0491
11
88.5197
21
75.2219
0
LINE
8
BLACK
6
CONTINUOUS
10
88.5197
20
75.2219
11
102.347
21
76.4317
0
LINE
8
BLACK
6
CONTINUOUS
10
102.347
20
76.4317
11
101.137
21
90.2588
0
LINE
8
BLACK
6
CONTINUOUS
10
101.137
20
90.2588
11
87.31
21
89.0491
0
LINE
8
BLACK
6
CONTINUOUS
10
56.0105
20
94.3031
11
56.0397
21
94.2676
0
LINE
8
BLACK
6
CONTINUOUS
10
56.0397
20
94.2676
11
60.1329
21
80.8794
0
LINE
8
BLACK
6
CONTINUOUS
10
60.1329
20
80.8794
11
60.1285
21
80.8337
0
LINE
8
BLACK
6
CONTINUOUS
10
60.1285
20
80.8337
11
60.0931
21
80.8045
0
LINE
8
BLACK
6
CONTINUOUS
10
60.0931
20
80.8045
11
46.7048
21
76.7113
0
LINE
8
BLACK
6
CONTINUOUS
10
46.7048
20
76.7113
11
46.6591
21
76.7157
0
LINE
8
BLACK
6
CONTINUOUS
10
46.6591
20
76.7157
11
46.6299
21
76.7511
0
LINE
8
BLACK
6
CONTINUOUS
10
46.6299
20
76.7511
11
42.5367
21
90.1394
0
LINE
8
BLACK
6
CONTINUOUS
10
42.5367
20
90.1394
11
42.5411
21
90.1851
0
LINE
8
BLACK
6
CONTINUOUS
10
42.5411
20
90.1851
11
42.5765
21
90.2143
0
LINE
8
BLACK
6
CONTINUOUS
10
42.5765
20
90.2143
11
55.9648
21
94.3075
0
LINE
8
BLACK
6
CONTINUOUS
10
55.9648
20
94.3075
11
55.9648
21
94.3075
0
LINE
8
BLACK
6
CONTINUOUS
10
55.9648
20
94.3075
11
56.0105
21
94.3031
0
LINE
8
BLACK
6
CONTINUOUS
10
42.669
20
90.1171
11
46.7271
21
76.8436
0
LINE
8
BLACK
6
CONTINUOUS
10
46.7271
20
76.8436
11
60.0006
21
80.9017
0
LINE
8
BLACK
6
CONTINUOUS
10
60.0006
20
80.9017
11
55.9425
21
94.1752
0
LINE
8
BLACK
6
CONTINUOUS
10
55.9425
20
94.1752
11
42.669
21
90.1171
0
LINE
8
BLACK
6
CONTINUOUS
10
78.7723
20
100.014
11
78.797
21
99.9748
0
LINE
8
BLACK
6
CONTINUOUS
10
78.797
20
99.9748
11
78.797
21
99.9748
0
LINE
8
BLACK
6
CONTINUOUS
10
78.797
20
99.9748
11
81.2281
21
86.1875
0
LINE
8
BLACK
6
CONTINUOUS
10
81.2281
20
86.1875
11
81.2181
21
86.1426
0
LINE
8
BLACK
6
CONTINUOUS
10
81.2181
20
86.1426
11
81.1794
21
86.118
0
LINE
8
BLACK
6
CONTINUOUS
10
81.1794
20
86.118
11
81.1794
21
86.118
0
LINE
8
BLACK
6
CONTINUOUS
10
81.1794
20
86.118
11
67.3921
21
83.6869
0
LINE
8
BLACK
6
CONTINUOUS
10
67.3921
20
83.6869
11
67.3921
21
83.6869
0
LINE
8
BLACK
6
CONTINUOUS
10
67.3921
20
83.6869
11
67.3473
21
83.6968
0
LINE
8
BLACK
6
CONTINUOUS
10
67.3473
20
83.6968
11
67.3226
21
83.7356
0
LINE
8
BLACK
6
CONTINUOUS
10
67.3226
20
83.7356
11
64.8915
21
97.5229
0
LINE
8
BLACK
6
CONTINUOUS
10
64.8915
20
97.5229
11
64.9015
21
97.5677
0
LINE
8
BLACK
6
CONTINUOUS
10
64.9015
20
97.5677
11
64.9402
21
97.5924
0
LINE
8
BLACK
6
CONTINUOUS
10
64.9402
20
97.5924
11
78.7275
21
100.023
0
LINE
8
BLACK
6
CONTINUOUS
10
78.7275
20
100.023
11
78.7723
21
100.014
0
LINE
8
BLACK
6
CONTINUOUS
10
65.0201
20
97.4846
11
67.4303
21
83.8155
0
LINE
8
BLACK
6
CONTINUOUS
10
67.4303
20
83.8155
11
81.0995
21
86.2257
0
LINE
8
BLACK
6
CONTINUOUS
10
81.0995
20
86.2257
11
78.6892
21
99.8949
0
LINE
8
BLACK
6
CONTINUOUS
10
78.6892
20
99.8949
11
65.0201
21
97.4846
0
LINE
8
BLACK
6
CONTINUOUS
10
126.726
20
86.8457
11
126.709
21
86.8882
0
LINE
8
BLACK
6
CONTINUOUS
10
126.709
20
86.8882
11
126.709
21
100.888
0
LINE
8
BLACK
6
CONTINUOUS
10
126.709
20
100.888
11
126.726
21
100.931
0
LINE
8
BLACK
6
CONTINUOUS
10
126.726
20
100.931
11
126.769
21
100.948
0
LINE
8
BLACK
6
CONTINUOUS
10
126.769
20
100.948
11
140.769
21
100.948
0
LINE
8
BLACK
6
CONTINUOUS
10
140.769
20
100.948
11
140.811
21
100.931
0
LINE
8
BLACK
6
CONTINUOUS
10
140.811
20
100.931
11
140.829
21
100.888
0
LINE
8
BLACK
6
CONTINUOUS
10
140.829
20
100.888
11
140.829
21
86.8882
0
LINE
8
BLACK
6
CONTINUOUS
10
140.829
20
86.8882
11
140.811
21
86.8457
0
LINE
8
BLACK
6
CONTINUOUS
10
140.811
20
86.8457
11
140.769
21
86.8282
0
LINE
8
BLACK
6
CONTINUOUS
10
140.769
20
86.8282
11
126.769
21
86.8282
0
LINE
8
BLACK
6
CONTINUOUS
10
126.769
20
86.8282
11
126.726
21
86.8457
0
LINE
8
BLACK
6
CONTINUOUS
10
126.829
20
100.828
11
126.829
21
86.9482
0
LINE
8
BLACK
6
CONTINUOUS
10
126.829
20
86.9482
11
140.709
21
86.9482
0
LINE
8
BLACK
6
CONTINUOUS
10
140.709
20
86.9482
11
140.709
21
100.828
0
LINE
8
BLACK
6
CONTINUOUS
10
140.709
20
100.828
11
126.829
21
100.828
0
LINE
8
BLACK
6
CONTINUOUS
10
107.726
20
90.0124
11
107.709
21
90.0548
0
LINE
8
BLACK
6
CONTINUOUS
10
107.709
20
90.0548
11
107.709
21
104.055
0
LINE
8
BLACK
6
CONTINUOUS
10
107.709
20
104.055
11
107.726
21
104.097
0
LINE
8
BLACK
6
CONTINUOUS
10
107.726
20
104.097
11
107.769
21
104.115
0
LINE
8
BLACK
6
CONTINUOUS
10
107.769
20
104.115
11
121.769
21
104.115
0
LINE
8
BLACK
6
CONTINUOUS
10
121.769
20
104.115
11
121.811
21
104.097
0
LINE
8
BLACK
6
CONTINUOUS
10
121.811
20
104.097
11
121.829
21
104.055
0
LINE
8
BLACK
6
CONTINUOUS
10
121.829
20
104.055
11
121.829
21
90.0548
0
LINE
8
BLACK
6
CONTINUOUS
10
121.829
20
90.0548
11
121.811
21
90.0124
0
LINE
8
BLACK
6
CONTINUOUS
10
121.811
20
90.0124
11
121.769
21
89.9948
0
LINE
8
BLACK
6
CONTINUOUS
10
121.769
20
89.9948
11
107.769
21
89.9948
0
LINE
8
BLACK
6
CONTINUOUS
10
107.769
20
89.9948
11
107.726
21
90.0124
0
LINE
8
BLACK
6
CONTINUOUS
10
107.829
20
103.995
11
107.829
21
90.1148
0
LINE
8
BLACK
6
CONTINUOUS
10
107.829
20
90.1148
11
121.709
21
90.1148
0
LINE
8
BLACK
6
CONTINUOUS
10
121.709
20
90.1148
11
121.709
21
103.995
0
LINE
8
BLACK
6
CONTINUOUS
10
121.709
20
103.995
11
107.829
21
103.995
0
LINE
8
BLACK
6
CONTINUOUS
10
99.5744
20
109.298
11
99.5956
21
109.257
0
LINE
8
BLACK
6
CONTINUOUS
10
99.5956
20
109.257
11
100.816
21
95.3101
0
LINE
8
BLACK
6
CONTINUOUS
10
100.816
20
95.3101
11
100.812
21
95.2996
0
LINE
8
BLACK
6
CONTINUOUS
10
100.812
20
95.2996
11
100.802
21
95.2663
0
LINE
8
BLACK
6
CONTINUOUS
10
100.802
20
95.2663
11
100.761
21
95.245
0
LINE
8
BLACK
6
CONTINUOUS
10
100.761
20
95.245
11
86.8145
21
94.0249
0
LINE
8
BLACK
6
CONTINUOUS
10
86.8145
20
94.0249
11
86.7707
21
94.0387
0
LINE
8
BLACK
6
CONTINUOUS
10
86.7707
20
94.0387
11
86.7495
21
94.0794
0
LINE
8
BLACK
6
CONTINUOUS
10
86.7495
20
94.0794
11
85.5293
21
108.026
0
LINE
8
BLACK
6
CONTINUOUS
10
85.5293
20
108.026
11
85.5431
21
108.07
0
LINE
8
BLACK
6
CONTINUOUS
10
85.5431
20
108.07
11
85.5838
21
108.091
0
LINE
8
BLACK
6
CONTINUOUS
10
85.5838
20
108.091
11
99.5306
21
109.311
0
LINE
8
BLACK
6
CONTINUOUS
10
99.5306
20
109.311
11
99.5306
21
109.311
0
LINE
8
BLACK
6
CONTINUOUS
10
99.5306
20
109.311
11
99.5744
21
109.298
0
LINE
8
BLACK
6
CONTINUOUS
10
85.6541
20
107.977
11
86.8638
21
94.1496
0
LINE
8
BLACK
6
CONTINUOUS
10
86.8638
20
94.1496
11
100.691
21
95.3594
0
LINE
8
BLACK
6
CONTINUOUS
10
100.691
20
95.3594
11
99.4812
21
109.187
0
LINE
8
BLACK
6
CONTINUOUS
10
99.4812
20
109.187
11
85.6541
21
107.977
0
LINE
8
BLACK
6
CONTINUOUS
10
75.473
20
118.725
11
75.4977
21
118.686
0
LINE
8
BLACK
6
CONTINUOUS
10
75.4977
20
118.686
11
75.4977
21
118.686
0
LINE
8
BLACK
6
CONTINUOUS
10
75.4977
20
118.686
11
77.9288
21
104.899
0
LINE
8
BLACK
6
CONTINUOUS
10
77.9288
20
104.899
11
77.9188
21
104.854
0
LINE
8
BLACK
6
CONTINUOUS
10
77.9188
20
104.854
11
77.8801
21
104.829
0
LINE
8
BLACK
6
CONTINUOUS
10
77.8801
20
104.829
11
77.8801
21
104.829
0
LINE
8
BLACK
6
CONTINUOUS
10
77.8801
20
104.829
11
64.0928
21
102.398
0
LINE
8
BLACK
6
CONTINUOUS
10
64.0928
20
102.398
11
64.0928
21
102.398
0
LINE
8
BLACK
6
CONTINUOUS
10
64.0928
20
102.398
11
64.0479
21
102.408
0
LINE
8
BLACK
6
CONTINUOUS
10
64.0479
20
102.408
11
64.0233
21
102.447
0
LINE
8
BLACK
6
CONTINUOUS
10
64.0233
20
102.447
11
61.5922
21
116.234
0
LINE
8
BLACK
6
CONTINUOUS
10
61.5922
20
116.234
11
61.6021
21
116.279
0
LINE
8
BLACK
6
CONTINUOUS
10
61.6021
20
116.279
11
61.6409
21
116.304
0
LINE
8
BLACK
6
CONTINUOUS
10
61.6409
20
116.304
11
75.4282
21
118.735
0
LINE
8
BLACK
6
CONTINUOUS
10
75.4282
20
118.735
11
75.473
21
118.725
0
LINE
8
BLACK
6
CONTINUOUS
10
61.7208
20
116.196
11
64.131
21
102.527
0
LINE
8
BLACK
6
CONTINUOUS
10
64.131
20
102.527
11
77.8002
21
104.937
0
LINE
8
BLACK
6
CONTINUOUS
10
77.8002
20
104.937
11
75.3899
21
118.606
0
LINE
8
BLACK
6
CONTINUOUS
10
75.3899
20
118.606
11
61.7208
21
116.196
0
LINE
8
BLACK
6
CONTINUOUS
10
126.726
20
105.846
11
126.709
21
105.888
0
LINE
8
BLACK
6
CONTINUOUS
10
126.709
20
105.888
11
126.709
21
119.888
0
LINE
8
BLACK
6
CONTINUOUS
10
126.709
20
119.888
11
126.726
21
119.931
0
LINE
8
BLACK
6
CONTINUOUS
10
126.726
20
119.931
11
126.769
21
119.948
0
LINE
8
BLACK
6
CONTINUOUS
10
126.769
20
119.948
11
140.769
21
119.948
0
LINE
8
BLACK
6
CONTINUOUS
10
140.769
20
119.948
11
140.811
21
119.931
0
LINE
8
BLACK
6
CONTINUOUS
10
140.811
20
119.931
11
140.829
21
119.888
0
LINE
8
BLACK
6
CONTINUOUS
10
140.829
20
119.888
11
140.829
21
105.888
0
LINE
8
BLACK
6
CONTINUOUS
10
140.829
20
105.888
11
140.811
21
105.846
0
LINE
8
BLACK
6
CONTINUOUS
10
140.811
20
105.846
11
140.769
21
105.828
0
LINE
8
BLACK
6
CONTINUOUS
10
140.769
20
105.828
11
126.769
21
105.828
0
LINE
8
BLACK
6
CONTINUOUS
10
126.769
20
105.828
11
126.726
21
105.846
0
LINE
8
BLACK
6
CONTINUOUS
10
126.829
20
119.828
11
126.829
21
105.948
0
LINE
8
BLACK
6
CONTINUOUS
10
126.829
20
105.948
11
140.709
21
105.948
0
LINE
8
BLACK
6
CONTINUOUS
10
140.709
20
105.948
11
140.709
21
119.828
0
LINE
8
BLACK
6
CONTINUOUS
10
140.709
20
119.828
11
126.829
21
119.828
0
LINE
8
BLACK
6
CONTINUOUS
10
107.726
20
109.012
11
107.709
21
109.055
0
LINE
8
BLACK
6
CONTINUOUS
10
107.709
20
109.055
11
107.709
21
123.055
0
LINE
8
BLACK
6
CONTINUOUS
10
107.709
20
123.055
11
107.726
21
123.097
0
LINE
8
BLACK
6
CONTINUOUS
10
107.726
20
123.097
11
107.769
21
123.115
0
LINE
8
BLACK
6
CONTINUOUS
10
107.769
20
123.115
11
121.769
21
123.115
0
LINE
8
BLACK
6
CONTINUOUS
10
121.769
20
123.115
11
121.811
21
123.097
0
LINE
8
BLACK
6
CONTINUOUS
10
121.811
20
123.097
11
121.829
21
123.055
0
LINE
8
BLACK
6
CONTINUOUS
10
121.829
20
123.055
11
121.829
21
109.055
0
LINE
8
BLACK
6
CONTINUOUS
10
121.829
20
109.055
11
121.811
21
109.012
0
LINE
8
BLACK
6
CONTINUOUS
10
121.811
20
109.012
11
121.769
21
108.995
0
LINE
8
BLACK
6
CONTINUOUS
10
121.769
20
108.995
11
107.769
21
108.995
0
LINE
8
BLACK
6
CONTINUOUS
10
107.769
20
108.995
11
107.726
21
109.012
0
LINE
8
BLACK
6
CONTINUOUS
10
107.829
20
122.995
11
107.829
21
109.115
0
LINE
8
BLACK
6
CONTINUOUS
10
107.829
20
109.115
11
121.709
21
109.115
0
LINE
8
BLACK
6
CONTINUOUS
10
121.709
20
109.115
11
121.709
21
122.995
0
LINE
8
BLACK
6
CONTINUOUS
10
121.709
20
122.995
11
107.829
21
122.995
0
LINE
8
BLACK
6
CONTINUOUS
10
97.9184
20
128.225
11
97.9396
21
128.184
0
LINE
8
BLACK
6
CONTINUOUS
10
97.9396
20
128.184
11
99.1598
21
114.238
0
LINE
8
BLACK
6
CONTINUOUS
10
99.1598
20
114.238
11
99.1565
21
114.227
0
LINE
8
BLACK
6
CONTINUOUS
10
99.1565
20
114.227
11
99.146
21
114.194
0
LINE
8
BLACK
6
CONTINUOUS
10
99.146
20
114.194
11
99.1052
21
114.173
0
LINE
8
BLACK
6
CONTINUOUS
10
99.1052
20
114.173
11
85.1585
21
112.953
0
LINE
8
BLACK
6
CONTINUOUS
10
85.1585
20
112.953
11
85.1147
21
112.966
0
LINE
8
BLACK
6
CONTINUOUS
10
85.1147
20
112.966
11
85.0935
21
113.007
0
LINE
8
BLACK
6
CONTINUOUS
10
85.0935
20
113.007
11
83.8733
21
126.954
0
LINE
8
BLACK
6
CONTINUOUS
10
83.8733
20
126.954
11
83.8871
21
126.998
0
LINE
8
BLACK
6
CONTINUOUS
10
83.8871
20
126.998
11
83.9279
21
127.019
0
LINE
8
BLACK
6
CONTINUOUS
10
83.9279
20
127.019
11
97.8746
21
128.239
0
LINE
8
BLACK
6
CONTINUOUS
10
97.8746
20
128.239
11
97.8746
21
128.239
0
LINE
8
BLACK
6
CONTINUOUS
10
97.8746
20
128.239
11
97.9184
21
128.225
0
LINE
8
BLACK
6
CONTINUOUS
10
83.9981
20
126.905
11
85.2078
21
113.077
0
LINE
8
BLACK
6
CONTINUOUS
10
85.2078
20
113.077
11
99.035
21
114.287
0
LINE
8
BLACK
6
CONTINUOUS
10
99.035
20
114.287
11
97.8253
21
128.114
0
LINE
8
BLACK
6
CONTINUOUS
10
97.8253
20
128.114
11
83.9981
21
126.905
  0
ENDSEC
  0
EOF
