<?xml version="1.0" encoding="UTF-8" standalone="no"?>
<!DOCTYPE svg PUBLIC "-//W3C//DTD SVG 20010904//EN"
              "http://www.w3.org/TR/2001/REC-SVG-20010904/DTD/svg10.dtd">

<svg xmlns="http://www.w3.org/2000/svg"
     width="9.35556in" height="13.2333in"
     viewBox="0 0 842 1191">
  <path id="Sans nom"
        fill="none" stroke="black" stroke-width="1"
        d="M 424.25,531.25
           C 407.00,528.00 372.83,493.25 386.33,470.00
             424.83,429.50 387.25,396.08 383.00,369.33
             380.50,348.08 389.83,319.33 411.33,313.33
             429.08,310.08 430.00,311.00 444.67,268.00
             459.33,225.00 611.75,252.42 639.00,273.67
             657.50,283.92 672.00,281.50 739.50,265.50
             758.50,259.50 783.00,275.50 787.50,297.00
             792.50,319.50 781.00,330.50 781.00,330.50
             781.00,330.50 771.00,344.25 761.50,355.25
             746.50,373.00 753.54,431.64 752.50,449.50
             752.00,467.50 746.50,496.00 768.50,515.50
             787.50,527.50 810.25,502.75 813.50,540.50
             817.50,565.50 790.00,596.25 762.00,594.50
             725.50,591.00 681.08,551.58 654.75,538.25
             614.42,520.25 608.58,508.00 606.25,485.50
             596.58,456.67 572.33,458.33 545.50,451.00
             522.00,445.33 501.00,450.25 495.25,458.50
             475.50,481.75 509.50,503.25 502.00,516.50
             495.75,528.25 442.50,536.50 424.25,531.25 Z
           M 860.50,276.50" />
</svg>
